<svg width="1440" height="236" viewBox="0 0 1440 236" fill="none" xmlns="http://www.w3.org/2000/svg">
<rect width="1440" height="236" fill="#F1F1F3"/>
<path d="M96 174H1343" stroke="#E8E8ED"/>
<path d="M102.727 205.188C102.648 204.805 102.494 204.479 102.264 204.209C102.033 203.939 101.752 203.734 101.42 203.594C101.088 203.453 100.734 203.383 100.359 203.383C99.8438 203.383 99.3789 203.514 98.9648 203.775C98.5508 204.037 98.2246 204.422 97.9863 204.93C97.748 205.438 97.6289 206.047 97.6289 206.758C97.6289 207.469 97.748 208.078 97.9863 208.586C98.2246 209.094 98.5508 209.479 98.9648 209.74C99.3789 210.002 99.8438 210.133 100.359 210.133C100.734 210.133 101.086 210.062 101.414 209.922C101.742 209.781 102.023 209.576 102.258 209.307C102.492 209.037 102.648 208.715 102.727 208.34H103.781C103.68 208.902 103.469 209.395 103.148 209.816C102.828 210.238 102.428 210.561 101.947 210.783C101.467 211.006 100.938 211.117 100.359 211.117C99.6328 211.117 98.9863 210.939 98.4199 210.584C97.8535 210.229 97.4102 209.721 97.0898 209.061C96.7695 208.4 96.6094 207.633 96.6094 206.758C96.6094 205.875 96.7695 205.105 97.0898 204.449C97.4102 203.793 97.8535 203.287 98.4199 202.932C98.9863 202.576 99.6328 202.398 100.359 202.398C100.93 202.398 101.457 202.51 101.941 202.732C102.426 202.955 102.828 203.275 103.148 203.693C103.469 204.111 103.68 204.609 103.781 205.188H102.727ZM107.73 211.129C107.16 211.129 106.654 210.992 106.213 210.719C105.771 210.445 105.43 210.061 105.188 209.564C104.945 209.068 104.824 208.496 104.824 207.848C104.824 207.191 104.945 206.615 105.188 206.119C105.43 205.623 105.771 205.238 106.213 204.965C106.654 204.691 107.16 204.555 107.73 204.555C108.301 204.555 108.805 204.691 109.242 204.965C109.68 205.238 110.018 205.623 110.256 206.119C110.494 206.615 110.613 207.191 110.613 207.848C110.613 208.496 110.494 209.068 110.256 209.564C110.018 210.061 109.68 210.445 109.242 210.719C108.805 210.992 108.301 211.129 107.73 211.129ZM107.73 210.238C108.145 210.238 108.492 210.129 108.773 209.91C109.055 209.691 109.264 209.402 109.4 209.043C109.537 208.684 109.605 208.285 109.605 207.848C109.605 207.41 109.537 207.01 109.4 206.646C109.264 206.283 109.055 205.992 108.773 205.773C108.492 205.555 108.145 205.445 107.73 205.445C107.316 205.445 106.967 205.555 106.682 205.773C106.396 205.992 106.184 206.283 106.043 206.646C105.902 207.01 105.832 207.41 105.832 207.848C105.832 208.285 105.902 208.684 106.043 209.043C106.184 209.402 106.396 209.691 106.682 209.91C106.967 210.129 107.316 210.238 107.73 210.238ZM111.938 204.637H112.91V205.645H113.027C113.152 205.441 113.273 205.27 113.391 205.129C113.508 204.988 113.689 204.857 113.936 204.736C114.182 204.615 114.492 204.555 114.867 204.555C115.398 204.555 115.869 204.688 116.279 204.953C116.689 205.219 117.008 205.6 117.234 206.096C117.461 206.592 117.574 207.172 117.574 207.836C117.574 208.492 117.461 209.07 117.234 209.57C117.008 210.07 116.689 210.455 116.279 210.725C115.869 210.994 115.402 211.129 114.879 211.129C114.512 211.129 114.203 211.066 113.953 210.941C113.703 210.816 113.516 210.682 113.391 210.537C113.266 210.393 113.145 210.223 113.027 210.027H112.945V213.391H111.938V204.637ZM112.922 207.812C112.922 208.289 112.992 208.709 113.133 209.072C113.273 209.436 113.48 209.719 113.754 209.922C114.027 210.125 114.355 210.227 114.738 210.227C115.129 210.227 115.463 210.121 115.74 209.91C116.018 209.699 116.225 209.412 116.361 209.049C116.498 208.686 116.566 208.273 116.566 207.812C116.566 207.359 116.498 206.955 116.361 206.6C116.225 206.244 116.02 205.965 115.746 205.762C115.473 205.559 115.137 205.457 114.738 205.457C114.348 205.457 114.018 205.555 113.748 205.75C113.479 205.945 113.273 206.219 113.133 206.57C112.992 206.922 112.922 207.336 112.922 207.812ZM119.297 213.391C119.094 213.391 118.906 213.383 118.734 213.367V212.465L118.922 212.477C118.984 212.484 119.086 212.488 119.227 212.488C119.398 212.488 119.541 212.471 119.654 212.436C119.768 212.4 119.881 212.312 119.994 212.172C120.107 212.031 120.215 211.816 120.316 211.527L120.504 211.047L118.148 204.637H119.25L120.984 209.688H121.055L122.789 204.637H123.891L121.195 211.914C121.008 212.406 120.758 212.775 120.445 213.021C120.133 213.268 119.75 213.391 119.297 213.391ZM125.004 204.637H125.977V205.609H126.047C126.164 205.281 126.373 205.02 126.674 204.824C126.975 204.629 127.312 204.531 127.688 204.531C127.883 204.531 128.059 204.539 128.215 204.555V205.574C128.176 205.559 128.094 205.543 127.969 205.527C127.844 205.512 127.723 205.504 127.605 205.504C127.309 205.504 127.039 205.568 126.797 205.697C126.555 205.826 126.363 206.004 126.223 206.23C126.082 206.457 126.012 206.711 126.012 206.992V211H125.004V204.637ZM129.199 204.637H130.207V211H129.199V204.637ZM129.703 203.582C129.578 203.582 129.461 203.553 129.352 203.494C129.242 203.436 129.156 203.354 129.094 203.248C129.031 203.143 129 203.031 129 202.914C129 202.789 129.031 202.676 129.094 202.574C129.156 202.473 129.242 202.393 129.352 202.334C129.461 202.275 129.578 202.246 129.703 202.246C129.836 202.246 129.957 202.275 130.066 202.334C130.176 202.393 130.262 202.473 130.324 202.574C130.387 202.676 130.418 202.789 130.418 202.914C130.418 203.031 130.387 203.143 130.324 203.248C130.262 203.354 130.176 203.436 130.066 203.494C129.957 203.553 129.836 203.582 129.703 203.582ZM134.391 213.52C133.883 213.52 133.432 213.447 133.037 213.303C132.643 213.158 132.33 212.947 132.1 212.67C131.869 212.393 131.734 212.059 131.695 211.668H132.75C132.82 211.988 132.998 212.23 133.283 212.395C133.568 212.559 133.938 212.641 134.391 212.641C134.953 212.641 135.387 212.516 135.691 212.266C135.996 212.016 136.148 211.633 136.148 211.117V209.828H136.066C135.957 210.016 135.84 210.182 135.715 210.326C135.59 210.471 135.402 210.604 135.152 210.725C134.902 210.846 134.59 210.906 134.215 210.906C133.699 210.906 133.236 210.779 132.826 210.525C132.416 210.271 132.094 209.904 131.859 209.424C131.625 208.943 131.508 208.379 131.508 207.73C131.508 207.09 131.623 206.529 131.854 206.049C132.084 205.568 132.404 205.199 132.814 204.941C133.225 204.684 133.695 204.555 134.227 204.555C134.602 204.555 134.912 204.615 135.158 204.736C135.404 204.857 135.582 204.98 135.691 205.105C135.801 205.23 135.934 205.41 136.09 205.645H136.172V204.637H137.156V211.176C137.156 211.699 137.037 212.137 136.799 212.488C136.561 212.84 136.234 213.1 135.82 213.268C135.406 213.436 134.93 213.52 134.391 213.52ZM134.355 210.004C134.738 210.004 135.066 209.914 135.34 209.734C135.613 209.555 135.82 209.299 135.961 208.967C136.102 208.635 136.172 208.234 136.172 207.766C136.172 207.305 136.102 206.9 135.961 206.553C135.82 206.205 135.615 205.936 135.346 205.744C135.076 205.553 134.746 205.457 134.355 205.457C133.965 205.457 133.633 205.559 133.359 205.762C133.086 205.965 132.879 206.24 132.738 206.588C132.598 206.936 132.527 207.328 132.527 207.766C132.527 208.211 132.598 208.602 132.738 208.938C132.879 209.273 133.086 209.535 133.359 209.723C133.633 209.91 133.965 210.004 134.355 210.004ZM139.77 211H138.762V202.516H139.77V205.633H139.852C140.008 205.289 140.238 205.023 140.543 204.836C140.848 204.648 141.242 204.555 141.727 204.555C142.172 204.555 142.557 204.643 142.881 204.818C143.205 204.994 143.455 205.262 143.631 205.621C143.807 205.98 143.895 206.426 143.895 206.957V211H142.887V207.027C142.887 206.699 142.828 206.416 142.711 206.178C142.594 205.939 142.426 205.76 142.207 205.639C141.988 205.518 141.727 205.457 141.422 205.457C141.102 205.457 140.818 205.523 140.572 205.656C140.326 205.789 140.131 205.986 139.986 206.248C139.842 206.51 139.77 206.82 139.77 207.18V211ZM148.289 205.48H144.973V204.637H148.289V205.48ZM146.953 203.113V209.172C146.953 209.43 146.99 209.627 147.064 209.764C147.139 209.9 147.236 209.994 147.357 210.045C147.479 210.096 147.621 210.121 147.785 210.121C147.98 210.121 148.18 210.113 148.383 210.098V211.035C148.18 211.066 147.945 211.082 147.68 211.082C147.383 211.082 147.102 211.02 146.836 210.895C146.57 210.77 146.354 210.582 146.186 210.332C146.018 210.082 145.934 209.781 145.934 209.43V203.113H146.953ZM155.105 208.72C154.529 208.72 154.081 208.544 153.761 208.192C153.441 207.84 153.281 207.352 153.281 206.728C153.281 206.088 153.445 205.596 153.773 205.252C154.109 204.9 154.569 204.724 155.153 204.724C155.345 204.724 155.529 204.744 155.705 204.784C155.889 204.816 156.069 204.872 156.245 204.952L156.041 205.552C155.889 205.488 155.737 205.44 155.585 205.408C155.441 205.376 155.293 205.36 155.141 205.36C154.789 205.36 154.521 205.476 154.337 205.708C154.161 205.932 154.073 206.272 154.073 206.728C154.073 207.16 154.161 207.496 154.337 207.736C154.513 207.968 154.769 208.084 155.105 208.084C155.265 208.084 155.433 208.064 155.609 208.024C155.793 207.976 155.985 207.912 156.185 207.832V208.48C155.993 208.56 155.809 208.62 155.633 208.66C155.457 208.7 155.281 208.72 155.105 208.72ZM154.781 211.66C154.101 211.66 153.461 211.532 152.861 211.276C152.261 211.02 151.733 210.668 151.277 210.22C150.829 209.764 150.477 209.236 150.221 208.636C149.965 208.036 149.837 207.396 149.837 206.716C149.837 206.028 149.965 205.388 150.221 204.796C150.477 204.196 150.829 203.672 151.277 203.224C151.733 202.768 152.261 202.412 152.861 202.156C153.461 201.9 154.101 201.772 154.781 201.772C155.469 201.772 156.109 201.9 156.701 202.156C157.301 202.412 157.825 202.768 158.273 203.224C158.729 203.672 159.085 204.196 159.341 204.796C159.597 205.388 159.725 206.028 159.725 206.716C159.725 207.396 159.597 208.036 159.341 208.636C159.085 209.236 158.729 209.764 158.273 210.22C157.825 210.668 157.301 211.02 156.701 211.276C156.109 211.532 155.469 211.66 154.781 211.66ZM154.781 210.988C155.373 210.988 155.925 210.88 156.437 210.664C156.957 210.44 157.413 210.132 157.805 209.74C158.197 209.348 158.501 208.896 158.717 208.384C158.941 207.864 159.053 207.308 159.053 206.716C159.053 206.124 158.941 205.572 158.717 205.06C158.501 204.54 158.197 204.084 157.805 203.692C157.413 203.3 156.957 202.996 156.437 202.78C155.925 202.556 155.373 202.444 154.781 202.444C154.189 202.444 153.633 202.556 153.113 202.78C152.601 202.996 152.149 203.3 151.757 203.692C151.365 204.084 151.057 204.54 150.833 205.06C150.617 205.572 150.509 206.124 150.509 206.716C150.509 207.308 150.617 207.864 150.833 208.384C151.057 208.896 151.365 209.348 151.757 209.74C152.149 210.132 152.601 210.44 153.113 210.664C153.633 210.88 154.189 210.988 154.781 210.988ZM164.355 211.117C163.73 211.117 163.197 210.947 162.756 210.607C162.314 210.268 161.977 209.771 161.742 209.119C161.508 208.467 161.391 207.68 161.391 206.758C161.391 205.844 161.508 205.061 161.742 204.408C161.977 203.756 162.316 203.258 162.762 202.914C163.207 202.57 163.738 202.398 164.355 202.398C164.973 202.398 165.504 202.57 165.949 202.914C166.395 203.258 166.734 203.756 166.969 204.408C167.203 205.061 167.32 205.844 167.32 206.758C167.32 207.68 167.205 208.467 166.975 209.119C166.744 209.771 166.406 210.268 165.961 210.607C165.516 210.947 164.98 211.117 164.355 211.117ZM164.355 210.18C164.762 210.18 165.109 210.047 165.398 209.781C165.688 209.516 165.908 209.127 166.061 208.615C166.213 208.104 166.289 207.484 166.289 206.758C166.289 206.031 166.213 205.41 166.061 204.895C165.908 204.379 165.688 203.986 165.398 203.717C165.109 203.447 164.762 203.312 164.355 203.312C163.949 203.312 163.602 203.447 163.312 203.717C163.023 203.986 162.801 204.379 162.645 204.895C162.488 205.41 162.41 206.031 162.41 206.758C162.41 207.484 162.486 208.104 162.639 208.615C162.791 209.127 163.014 209.516 163.307 209.781C163.6 210.047 163.949 210.18 164.355 210.18ZM171.504 211.117C170.879 211.117 170.346 210.947 169.904 210.607C169.463 210.268 169.125 209.771 168.891 209.119C168.656 208.467 168.539 207.68 168.539 206.758C168.539 205.844 168.656 205.061 168.891 204.408C169.125 203.756 169.465 203.258 169.91 202.914C170.355 202.57 170.887 202.398 171.504 202.398C172.121 202.398 172.652 202.57 173.098 202.914C173.543 203.258 173.883 203.756 174.117 204.408C174.352 205.061 174.469 205.844 174.469 206.758C174.469 207.68 174.354 208.467 174.123 209.119C173.893 209.771 173.555 210.268 173.109 210.607C172.664 210.947 172.129 211.117 171.504 211.117ZM171.504 210.18C171.91 210.18 172.258 210.047 172.547 209.781C172.836 209.516 173.057 209.127 173.209 208.615C173.361 208.104 173.438 207.484 173.438 206.758C173.438 206.031 173.361 205.41 173.209 204.895C173.057 204.379 172.836 203.986 172.547 203.717C172.258 203.447 171.91 203.312 171.504 203.312C171.098 203.312 170.75 203.447 170.461 203.717C170.172 203.986 169.949 204.379 169.793 204.895C169.637 205.41 169.559 206.031 169.559 206.758C169.559 207.484 169.635 208.104 169.787 208.615C169.939 209.127 170.162 209.516 170.455 209.781C170.748 210.047 171.098 210.18 171.504 210.18Z" fill="#BABBC2"/>
<path d="M96.5767 46.6587V45.8797L96.9737 42H106.74L106.703 42.1273V46.6587H96.5767ZM98.599 46.067H104.643V42.5917H98.981L98.599 46.067ZM96 47.6474L96.1723 47.0557H107.16V47.6474H104.905L103.243 53.2348H101.093L102.748 47.6474H100.734L99.0783 53.2348H96.9287L98.584 47.6474H96Z" fill="#BABBC2"/>
<path d="M111.189 47.7447H108.343L113.256 42.5917H108.8L108.972 42H118.207V42.5917H116.102L114.417 44.3593L117.713 47.7447H116.896L114.013 44.7862L111.189 47.7447ZM107.729 53.2348L107.901 52.6431H119.038V53.2348H107.729Z" fill="#BABBC2"/>
<path d="M128.618 45.8423V42H130.692V53.2348H128.618V46.5913L125.172 49.3026L124.004 53.2348H121.847L123.51 47.6099H119.532L119.705 47.0182H123.682L125 42.5917H119.532L119.705 42H127.157V42.6067L125.457 48.3289L128.618 45.8423Z" fill="#BABBC2"/>
<path d="M132.497 48.5312L132.669 47.9395H141.889V48.5461L140.511 53.2348H138.354L139.74 48.5312H132.497ZM137.538 47.0257L137.365 47.6099H131.426V47.0032L132.901 42H135.051L133.576 47.0257H137.538ZM137.927 47.6399V44.6439L136.152 46.0221L136.437 45.0559L137.927 43.8949V42.0225H139.994V47.6399H137.927ZM140.369 42.0225H142.436V47.6399H140.369V42.0225Z" fill="#BABBC2"/>
<path d="M153.7 47.0257L153.528 47.6174H143.02V47.0107L144.503 42H146.667H146.66H153.7L153.528 42.5917H146.488L145.986 44.2844H153.7L153.528 44.8761H145.814L145.177 47.0257H153.7ZM142.937 52.6431H154V53.2348H142.765L142.937 52.6431Z" fill="#BABBC2"/>
<path d="M99.7617 82.3833C99.7617 83.0396 99.6406 83.6548 99.3984 84.229C99.1562 84.8032 98.8203 85.3032 98.3906 85.729C97.9609 86.1548 97.457 86.481 96.8789 86.7075L96.3867 85.9692C96.9023 85.7739 97.3574 85.4966 97.752 85.1372C98.1465 84.7778 98.4531 84.3599 98.6719 83.8833C98.8906 83.4067 99 82.9067 99 82.3833V81.3052H99.7617V82.3833ZM99.9023 82.4536C99.9023 82.9146 100.014 83.3618 100.236 83.7954C100.459 84.229 100.766 84.6099 101.156 84.938C101.547 85.2661 101.992 85.5161 102.492 85.688L101.988 86.4146C101.434 86.2114 100.941 85.9126 100.512 85.5181C100.082 85.1235 99.748 84.6626 99.5098 84.1353C99.2715 83.6079 99.1523 83.0474 99.1523 82.4536V81.3052H99.9023V82.4536ZM104.566 87.106H103.652V80.7661H104.566V87.106ZM106.137 84.2583H104.309V83.4849H106.137V84.2583ZM101.227 87.3755C101.938 87.3755 102.551 87.4497 103.066 87.5981C103.582 87.7466 103.977 87.9614 104.25 88.2427C104.523 88.5239 104.66 88.8638 104.66 89.2622C104.66 89.6606 104.523 90.0024 104.25 90.2876C103.977 90.5728 103.584 90.7896 103.072 90.938C102.561 91.0864 101.945 91.1606 101.227 91.1606C100.516 91.1606 99.9004 91.0864 99.3809 90.938C98.8613 90.7896 98.4629 90.5728 98.1855 90.2876C97.9082 90.0024 97.7695 89.6606 97.7695 89.2622C97.7695 88.8638 97.9082 88.5239 98.1855 88.2427C98.4629 87.9614 98.8613 87.7466 99.3809 87.5981C99.9004 87.4497 100.516 87.3755 101.227 87.3755ZM101.227 88.1138C100.711 88.1138 100.262 88.1587 99.8789 88.2485C99.4961 88.3384 99.2031 88.4712 99 88.647C98.7969 88.8228 98.6953 89.0278 98.6953 89.2622C98.6953 89.5044 98.7969 89.7134 99 89.8892C99.2031 90.0649 99.4941 90.1978 99.873 90.2876C100.252 90.3774 100.703 90.4263 101.227 90.4341C101.758 90.4263 102.213 90.3774 102.592 90.2876C102.971 90.1978 103.262 90.0649 103.465 89.8892C103.668 89.7134 103.77 89.5044 103.77 89.2622C103.77 89.02 103.668 88.813 103.465 88.6411C103.262 88.4692 102.969 88.3384 102.586 88.2485C102.203 88.1587 101.75 88.1138 101.227 88.1138ZM115.793 83.0747H107.262V82.313H115.793V83.0747ZM116.332 89.9653H106.793V89.2036H116.332V89.9653ZM111.984 89.4849H111.082V87.5161H111.984V89.4849ZM111.539 83.7896C112.234 83.7817 112.84 83.856 113.355 84.0122C113.871 84.1685 114.268 84.3931 114.545 84.686C114.822 84.979 114.961 85.3325 114.961 85.7466C114.961 86.1606 114.822 86.5181 114.545 86.8188C114.268 87.1196 113.873 87.3501 113.361 87.5103C112.85 87.6704 112.242 87.7505 111.539 87.7505C110.836 87.7505 110.227 87.6704 109.711 87.5103C109.195 87.3501 108.801 87.1196 108.527 86.8188C108.254 86.5181 108.117 86.1606 108.117 85.7466C108.117 85.3325 108.254 84.979 108.527 84.686C108.801 84.3931 109.195 84.1685 109.711 84.0122C110.227 83.856 110.836 83.7817 111.539 83.7896ZM111.539 84.5161C111.023 84.5161 110.578 84.5649 110.203 84.6626C109.828 84.7603 109.541 84.9009 109.342 85.0845C109.143 85.2681 109.043 85.4888 109.043 85.7466C109.043 86.0044 109.143 86.2271 109.342 86.4146C109.541 86.6021 109.828 86.7446 110.203 86.8423C110.578 86.9399 111.023 86.9927 111.539 87.0005C112.055 86.9927 112.498 86.9399 112.869 86.8423C113.24 86.7446 113.525 86.6021 113.725 86.4146C113.924 86.2271 114.023 86.0044 114.023 85.7466C114.023 85.4888 113.924 85.2681 113.725 85.0845C113.525 84.9009 113.238 84.7603 112.863 84.6626C112.488 84.5649 112.047 84.5161 111.539 84.5161ZM111.984 82.7817H111.082V80.9419H111.984V82.7817ZM121.277 89.1099C121.145 89.1099 121.02 89.0747 120.902 89.0044C120.785 88.9341 120.693 88.8403 120.627 88.7231C120.561 88.606 120.527 88.481 120.527 88.3481C120.527 88.2153 120.561 88.0903 120.627 87.9731C120.693 87.856 120.785 87.7642 120.902 87.6978C121.02 87.6313 121.145 87.5981 121.277 87.5981C121.41 87.5981 121.535 87.6313 121.652 87.6978C121.77 87.7642 121.861 87.856 121.928 87.9731C121.994 88.0903 122.027 88.2153 122.027 88.3481C122.027 88.481 121.994 88.606 121.928 88.7231C121.861 88.8403 121.77 88.9341 121.652 89.0044C121.535 89.0747 121.41 89.1099 121.277 89.1099ZM121.277 84.3989C121.145 84.3989 121.02 84.3638 120.902 84.2935C120.785 84.2231 120.693 84.1294 120.627 84.0122C120.561 83.895 120.527 83.77 120.527 83.6372C120.527 83.5044 120.561 83.3794 120.627 83.2622C120.693 83.145 120.785 83.0532 120.902 82.9868C121.02 82.9204 121.145 82.8872 121.277 82.8872C121.41 82.8872 121.535 82.9204 121.652 82.9868C121.77 83.0532 121.861 83.145 121.928 83.2622C121.994 83.3794 122.027 83.5044 122.027 83.6372C122.027 83.77 121.994 83.895 121.928 84.0122C121.861 84.1294 121.77 84.2231 121.652 84.2935C121.535 84.3638 121.41 84.3989 121.277 84.3989ZM129.586 91.2661H128.672V87.0708H129.586V91.2661ZM133.324 91.2661H132.41V87.0708H133.324V91.2661ZM135.762 87.563H126.223V86.8013H135.762V87.563ZM134.52 85.395H127.453V81.3403H134.52V85.395ZM128.355 84.6567H133.605V82.0903H128.355V84.6567ZM146.145 89.8013H136.605V89.0278H146.145V89.8013ZM141.668 83.063C141.668 83.7349 141.465 84.3618 141.059 84.9438C140.652 85.5259 140.125 86.0142 139.477 86.4087C138.828 86.8032 138.156 87.0708 137.461 87.2114L137.074 86.4731C137.676 86.3638 138.271 86.1431 138.861 85.811C139.451 85.479 139.936 85.0688 140.314 84.5806C140.693 84.0923 140.883 83.5864 140.883 83.063V82.1841H141.668V83.063ZM141.832 83.063C141.832 83.5942 142.023 84.1001 142.406 84.5806C142.789 85.061 143.279 85.4653 143.877 85.7935C144.475 86.1216 145.078 86.3364 145.688 86.438L145.312 87.1646C144.609 87.0239 143.932 86.7603 143.279 86.3735C142.627 85.9868 142.096 85.5063 141.686 84.9321C141.275 84.3579 141.07 83.7349 141.07 83.063V82.1841H141.832V83.063ZM145.324 82.5825H137.391V81.8208H145.324V82.5825ZM152.273 81.856C152.273 82.9263 152.127 83.9185 151.834 84.8325C151.541 85.7466 151.043 86.5981 150.34 87.3872C149.637 88.1763 148.695 88.8677 147.516 89.4614L146.988 88.7583C148.051 88.2271 148.906 87.6177 149.555 86.9302C150.203 86.2427 150.67 85.4888 150.955 84.6685C151.24 83.8481 151.383 82.9458 151.383 81.9614V81.856H152.273ZM151.934 82.6177H147.551V81.856H151.934V82.6177ZM147.188 85.5239L147.023 84.7271L151.312 84.4458V85.1372L147.188 85.5239ZM155.602 91.1841H154.688V80.7661H155.602V91.1841ZM155.133 85.7231H152.238V84.9614H155.133V85.7231ZM166.219 86.8716H165.34V80.7778H166.219V86.8716ZM163.559 83.6841H161.004V82.9224H163.559V83.6841ZM164.133 86.7661H163.254V81.0005H164.133V86.7661ZM158.824 85.5825H157.91V81.5161H158.824V85.5825ZM158.566 85.4302C159.254 85.4302 159.885 85.4087 160.459 85.3657C161.033 85.3228 161.633 85.2427 162.258 85.1255L162.363 85.8638C161.715 85.9966 161.094 86.0864 160.5 86.1333C159.906 86.1802 159.262 86.2036 158.566 86.2036H157.91V85.4302H158.566ZM166.219 91.1841H165.316V88.1489H159.164V87.3872H166.219V91.1841ZM176.156 87.1528H168.949V86.4028H176.156V87.1528ZM177.258 89.8247H167.719V89.063H177.258V89.8247ZM176.039 82.4419H169.887V86.6255H168.949V81.6685H176.039V82.4419ZM175.816 84.7271H169.594V83.9888H175.816V84.7271ZM182.953 91.4302H182.086V80.5552H182.953V91.4302ZM196.688 91.1841H195.809V80.7661H196.688V91.1841ZM196.043 85.7231H194.004V84.9614H196.043V85.7231ZM194.273 90.645H193.43V81.0005H194.273V90.645ZM188.836 87.8208C189.688 87.8208 190.395 87.8013 190.957 87.7622C191.52 87.7231 192.09 87.645 192.668 87.5278L192.75 88.3013C192.156 88.4185 191.572 88.4985 190.998 88.5415C190.424 88.5845 189.703 88.606 188.836 88.606H188.168V87.8208H188.836ZM192.07 82.8052H189.082V88.1841H188.168V82.0435H192.07V82.8052ZM201.738 89.4028H200.812V86.4028H201.738V89.4028ZM204.961 89.4028H204.047V86.4028H204.961V89.4028ZM207.691 89.9067H198.152V89.145H207.691V89.9067ZM206.777 82.5005H198.996V81.7388H206.777V82.5005ZM206.754 86.6606H199.02V85.8989H206.754V86.6606ZM201.562 86.063H200.648V82.3481H201.562V86.063ZM205.125 86.063H204.223V82.3481H205.125V86.063ZM212.637 89.1099C212.504 89.1099 212.379 89.0747 212.262 89.0044C212.145 88.9341 212.053 88.8403 211.986 88.7231C211.92 88.606 211.887 88.481 211.887 88.3481C211.887 88.2153 211.92 88.0903 211.986 87.9731C212.053 87.856 212.145 87.7642 212.262 87.6978C212.379 87.6313 212.504 87.5981 212.637 87.5981C212.77 87.5981 212.895 87.6313 213.012 87.6978C213.129 87.7642 213.221 87.856 213.287 87.9731C213.354 88.0903 213.387 88.2153 213.387 88.3481C213.387 88.481 213.354 88.606 213.287 88.7231C213.221 88.8403 213.129 88.9341 213.012 89.0044C212.895 89.0747 212.77 89.1099 212.637 89.1099ZM212.637 84.3989C212.504 84.3989 212.379 84.3638 212.262 84.2935C212.145 84.2231 212.053 84.1294 211.986 84.0122C211.92 83.895 211.887 83.77 211.887 83.6372C211.887 83.5044 211.92 83.3794 211.986 83.2622C212.053 83.145 212.145 83.0532 212.262 82.9868C212.379 82.9204 212.504 82.8872 212.637 82.8872C212.77 82.8872 212.895 82.9204 213.012 82.9868C213.129 83.0532 213.221 83.145 213.287 83.2622C213.354 83.3794 213.387 83.5044 213.387 83.6372C213.387 83.77 213.354 83.895 213.287 84.0122C213.221 84.1294 213.129 84.2231 213.012 84.2935C212.895 84.3638 212.77 84.3989 212.637 84.3989ZM223.09 81.4458C223.09 82.3052 222.889 83.0864 222.486 83.7896C222.084 84.4927 221.508 85.0942 220.758 85.5942C220.008 86.0942 219.117 86.4849 218.086 86.7661L217.711 86.0396C218.625 85.7974 219.412 85.4712 220.072 85.061C220.732 84.6509 221.24 84.1724 221.596 83.6255C221.951 83.0786 222.129 82.4849 222.129 81.8442V81.4458H223.09ZM222.645 82.1958H218.262V81.4458H222.645V82.1958ZM226.195 86.6606H225.281V80.7778H226.195V86.6606ZM226.195 91.0435H219.422V87.1646H226.195V91.0435ZM220.324 90.2935H225.293V87.9028H220.324V90.2935ZM234.234 84.0591H232.148V83.2974H234.234V84.0591ZM234.234 87.2349H232.148V86.4614H234.234V87.2349ZM236.895 91.1841H236.004V80.7661H236.895V91.1841ZM234.82 90.6567H233.941V80.9888H234.82V90.6567ZM230.332 81.645C230.785 81.645 231.18 81.7915 231.516 82.0845C231.852 82.3774 232.113 82.7974 232.301 83.3442C232.488 83.8911 232.582 84.5317 232.582 85.2661C232.582 85.9927 232.488 86.6294 232.301 87.1763C232.113 87.7231 231.852 88.145 231.516 88.4419C231.18 88.7388 230.785 88.8872 230.332 88.8872C229.887 88.8872 229.494 88.7388 229.154 88.4419C228.814 88.145 228.553 87.7231 228.369 87.1763C228.186 86.6294 228.094 85.9927 228.094 85.2661C228.094 84.5317 228.186 83.8911 228.369 83.3442C228.553 82.7974 228.814 82.3774 229.154 82.0845C229.494 81.7915 229.887 81.645 230.332 81.645ZM230.332 82.5122C230.051 82.5122 229.807 82.6235 229.6 82.8462C229.393 83.0688 229.232 83.3872 229.119 83.8013C229.006 84.2153 228.949 84.7036 228.949 85.2661C228.949 85.8208 229.006 86.3052 229.119 86.7192C229.232 87.1333 229.393 87.4517 229.6 87.6743C229.807 87.897 230.051 88.0083 230.332 88.0083C230.613 88.0083 230.859 87.897 231.07 87.6743C231.281 87.4517 231.443 87.1333 231.557 86.7192C231.67 86.3052 231.727 85.8208 231.727 85.2661C231.727 84.7036 231.67 84.2153 231.557 83.8013C231.443 83.3872 231.281 83.0688 231.07 82.8462C230.859 82.6235 230.613 82.5122 230.332 82.5122ZM241.922 83.0044C241.922 83.6216 241.797 84.2056 241.547 84.7563C241.297 85.3071 240.949 85.7856 240.504 86.1919C240.059 86.5981 239.547 86.9067 238.969 87.1177L238.488 86.3794C239.004 86.1919 239.465 85.9263 239.871 85.5825C240.277 85.2388 240.594 84.8442 240.82 84.3989C241.047 83.9536 241.16 83.4888 241.16 83.0044V81.9146H241.922V83.0044ZM242.086 83.0044C242.086 83.4653 242.199 83.9067 242.426 84.3286C242.652 84.7505 242.969 85.1216 243.375 85.4419C243.781 85.7622 244.242 86.0044 244.758 86.1685L244.289 86.9067C243.711 86.7114 243.197 86.4204 242.748 86.0337C242.299 85.647 241.949 85.1938 241.699 84.6743C241.449 84.1548 241.324 83.5981 241.324 83.0044V81.9146H242.086V83.0044ZM244.488 82.395H238.723V81.645H244.488V82.395ZM246.938 88.4185H246.023V80.7778H246.938V88.4185ZM247.266 90.9614H240.211V90.188H247.266V90.9614ZM241.125 90.5278H240.211V87.6919H241.125V90.5278ZM249.504 92.6372H248.637L249.281 89.4497H250.418L249.504 92.6372ZM256.055 84.3052H258.316V81.7622H259.172V88.5825H255.176V81.7622H256.055V84.3052ZM258.316 87.8208V85.0552H256.055V87.8208H258.316ZM263.719 91.1841H262.828V80.7661H263.719V91.1841ZM263.156 85.6646H261.117V84.9028H263.156V85.6646ZM261.375 90.6567H260.496V80.9888H261.375V90.6567ZM274.113 91.1841H273.223V80.7661H274.113V91.1841ZM273.562 85.77H271.535V84.9849H273.562V85.77ZM271.805 90.6567H270.926V80.9888H271.805V90.6567ZM268.066 83.6138C268.066 84.4419 267.975 85.2075 267.791 85.9106C267.607 86.6138 267.334 87.231 266.971 87.7622C266.607 88.2935 266.16 88.7153 265.629 89.0278L265.055 88.3247C265.547 88.0513 265.965 87.6802 266.309 87.2114C266.652 86.7427 266.912 86.2017 267.088 85.5884C267.264 84.9751 267.352 84.3169 267.352 83.6138V82.3833H268.066V83.6138ZM268.242 83.6138C268.242 84.2544 268.33 84.8579 268.506 85.4243C268.682 85.9907 268.939 86.4927 269.279 86.9302C269.619 87.3677 270.031 87.7114 270.516 87.9614L269.965 88.6763C269.441 88.3872 268.998 87.9907 268.635 87.4868C268.271 86.9829 267.996 86.4009 267.809 85.7407C267.621 85.0806 267.527 84.3716 267.527 83.6138V82.3833H268.242V83.6138ZM270.176 82.7817H265.301V82.0083H270.176V82.7817ZM284.168 88.7231H283.242V80.7778H284.168V88.7231ZM283.629 84.3169H281.438V83.5552H283.629V84.3169ZM283.629 86.4849H281.438V85.7349H283.629V86.4849ZM281.438 82.8052H275.543V82.0552H281.438V82.8052ZM278.52 83.3794C278.98 83.3794 279.393 83.4614 279.756 83.6255C280.119 83.7896 280.4 84.022 280.6 84.3228C280.799 84.6235 280.898 84.9731 280.898 85.3716C280.898 85.7622 280.799 86.1079 280.6 86.4087C280.4 86.7095 280.119 86.9438 279.756 87.1118C279.393 87.2798 278.98 87.3638 278.52 87.3638C278.059 87.3638 277.65 87.2798 277.295 87.1118C276.939 86.9438 276.662 86.7095 276.463 86.4087C276.264 86.1079 276.164 85.7622 276.164 85.3716C276.164 84.9731 276.264 84.6235 276.463 84.3228C276.662 84.022 276.939 83.7896 277.295 83.6255C277.65 83.4614 278.059 83.3794 278.52 83.3794ZM278.52 84.106C278.23 84.106 277.971 84.1587 277.74 84.2642C277.51 84.3696 277.332 84.5181 277.207 84.7095C277.082 84.9009 277.02 85.1216 277.02 85.3716C277.02 85.6138 277.082 85.8306 277.207 86.022C277.332 86.2134 277.51 86.3618 277.74 86.4673C277.971 86.5728 278.23 86.6255 278.52 86.6255C278.816 86.6255 279.078 86.5728 279.305 86.4673C279.531 86.3618 279.709 86.2134 279.838 86.022C279.967 85.8306 280.031 85.6138 280.031 85.3716C280.031 85.1216 279.967 84.9009 279.838 84.7095C279.709 84.5181 279.531 84.3696 279.305 84.2642C279.078 84.1587 278.816 84.106 278.52 84.106ZM278.988 82.5356H278.074V80.7661H278.988V82.5356ZM284.402 90.9614H277.43V90.188H284.402V90.9614ZM278.355 90.563H277.43V88.02H278.355V90.563Z" fill="#BABBC2"/>
<path d="M105.012 112.208H104.086V101.766H105.012V112.208ZM99.4688 102.575C99.9844 102.575 100.443 102.725 100.846 103.026C101.248 103.327 101.562 103.75 101.789 104.297C102.016 104.844 102.129 105.481 102.129 106.208C102.129 106.934 102.016 107.571 101.789 108.118C101.562 108.665 101.248 109.086 100.846 109.383C100.443 109.68 99.9844 109.829 99.4688 109.829C98.9531 109.829 98.4941 109.68 98.0918 109.383C97.6895 109.086 97.375 108.665 97.1484 108.118C96.9219 107.571 96.8086 106.934 96.8086 106.208C96.8086 105.481 96.9219 104.844 97.1484 104.297C97.375 103.75 97.6895 103.327 98.0918 103.026C98.4941 102.725 98.9531 102.575 99.4688 102.575ZM99.4688 103.395C99.125 103.395 98.8184 103.512 98.5488 103.747C98.2793 103.981 98.0703 104.309 97.9219 104.731C97.7734 105.153 97.6992 105.645 97.6992 106.208C97.6992 106.762 97.7734 107.252 97.9219 107.678C98.0703 108.104 98.2793 108.432 98.5488 108.663C98.8184 108.893 99.125 109.008 99.4688 109.008C99.8125 109.008 100.119 108.893 100.389 108.663C100.658 108.432 100.867 108.104 101.016 107.678C101.164 107.252 101.238 106.762 101.238 106.208C101.238 105.645 101.164 105.153 101.016 104.731C100.867 104.309 100.66 103.981 100.395 103.747C100.129 103.512 99.8203 103.395 99.4688 103.395ZM111.164 109.383H107.18V102.985H111.164V109.383ZM108.047 108.645H110.297V103.723H108.047V108.645ZM115.723 112.184H114.832V101.766H115.723V112.184ZM113.145 106.465H110.719V105.704H113.145V106.465ZM113.625 111.657H112.746V101.989H113.625V111.657ZM120.117 102.153C120.633 102.153 121.096 102.25 121.506 102.446C121.916 102.641 122.236 102.915 122.467 103.266C122.697 103.618 122.812 104.016 122.812 104.461C122.812 104.907 122.697 105.303 122.467 105.651C122.236 105.999 121.916 106.27 121.506 106.465C121.096 106.661 120.633 106.758 120.117 106.758C119.594 106.758 119.127 106.661 118.717 106.465C118.307 106.27 117.986 105.999 117.756 105.651C117.525 105.303 117.41 104.907 117.41 104.461C117.41 104.016 117.525 103.618 117.756 103.266C117.986 102.915 118.307 102.641 118.717 102.446C119.127 102.25 119.594 102.153 120.117 102.153ZM120.117 102.926C119.773 102.926 119.465 102.991 119.191 103.12C118.918 103.249 118.703 103.43 118.547 103.665C118.391 103.899 118.312 104.165 118.312 104.461C118.312 104.758 118.391 105.024 118.547 105.258C118.703 105.493 118.918 105.676 119.191 105.809C119.465 105.942 119.773 106.008 120.117 106.008C120.461 106.008 120.77 105.942 121.043 105.809C121.316 105.676 121.531 105.493 121.688 105.258C121.844 105.024 121.922 104.758 121.922 104.461C121.922 104.165 121.844 103.899 121.688 103.665C121.531 103.43 121.316 103.249 121.043 103.12C120.77 102.991 120.461 102.926 120.117 102.926ZM125.766 107.122H124.852V101.766H125.766V107.122ZM125.766 110.133H119.918V111.715H119.016V109.442H124.852V108.364H118.992V107.625H125.766V110.133ZM126.141 112.043H119.016V111.305H126.141V112.043ZM131.648 110.11C131.516 110.11 131.391 110.075 131.273 110.004C131.156 109.934 131.064 109.84 130.998 109.723C130.932 109.606 130.898 109.481 130.898 109.348C130.898 109.215 130.932 109.09 130.998 108.973C131.064 108.856 131.156 108.764 131.273 108.698C131.391 108.631 131.516 108.598 131.648 108.598C131.781 108.598 131.906 108.631 132.023 108.698C132.141 108.764 132.232 108.856 132.299 108.973C132.365 109.09 132.398 109.215 132.398 109.348C132.398 109.481 132.365 109.606 132.299 109.723C132.232 109.84 132.141 109.934 132.023 110.004C131.906 110.075 131.781 110.11 131.648 110.11ZM131.648 105.399C131.516 105.399 131.391 105.364 131.273 105.293C131.156 105.223 131.064 105.129 130.998 105.012C130.932 104.895 130.898 104.77 130.898 104.637C130.898 104.504 130.932 104.379 130.998 104.262C131.064 104.145 131.156 104.053 131.273 103.987C131.391 103.92 131.516 103.887 131.648 103.887C131.781 103.887 131.906 103.92 132.023 103.987C132.141 104.053 132.232 104.145 132.299 104.262C132.365 104.379 132.398 104.504 132.398 104.637C132.398 104.77 132.365 104.895 132.299 105.012C132.232 105.129 132.141 105.223 132.023 105.293C131.906 105.364 131.781 105.399 131.648 105.399ZM137.918 107.684H138.117L140.871 104.872H142.113L139.148 107.883H139.055L137.93 108.926L137.918 107.684ZM136.992 102.75H138V111.235H136.992V102.75ZM138.574 108.106L139.277 107.403L142.312 111.235H141.035L138.574 108.106ZM143.191 104.872H144.199V111.235H143.191V104.872ZM143.695 103.817C143.57 103.817 143.453 103.788 143.344 103.729C143.234 103.67 143.148 103.588 143.086 103.483C143.023 103.377 142.992 103.266 142.992 103.149C142.992 103.024 143.023 102.911 143.086 102.809C143.148 102.708 143.234 102.627 143.344 102.569C143.453 102.51 143.57 102.481 143.695 102.481C143.828 102.481 143.949 102.51 144.059 102.569C144.168 102.627 144.254 102.708 144.316 102.809C144.379 102.911 144.41 103.024 144.41 103.149C144.41 103.266 144.379 103.377 144.316 103.483C144.254 103.588 144.168 103.67 144.059 103.729C143.949 103.788 143.828 103.817 143.695 103.817ZM145.805 104.872H146.777V105.868H146.859C147 105.524 147.217 105.258 147.51 105.071C147.803 104.883 148.156 104.79 148.57 104.79C148.844 104.79 149.09 104.831 149.309 104.913C149.527 104.995 149.717 105.116 149.877 105.276C150.037 105.436 150.168 105.633 150.27 105.868H150.34C150.449 105.641 150.596 105.448 150.779 105.288C150.963 105.127 151.18 105.004 151.43 104.918C151.68 104.833 151.953 104.79 152.25 104.79C152.641 104.79 152.98 104.87 153.27 105.03C153.559 105.19 153.785 105.432 153.949 105.756C154.113 106.081 154.195 106.489 154.195 106.981V111.235H153.188V106.993C153.188 106.547 153.066 106.219 152.824 106.008C152.582 105.797 152.273 105.692 151.898 105.692C151.609 105.692 151.359 105.752 151.148 105.874C150.938 105.995 150.777 106.161 150.668 106.372C150.559 106.583 150.504 106.825 150.504 107.098V111.235H149.484V106.887C149.484 106.653 149.432 106.444 149.326 106.26C149.221 106.077 149.074 105.936 148.887 105.838C148.699 105.741 148.484 105.692 148.242 105.692C147.992 105.692 147.758 105.758 147.539 105.891C147.32 106.024 147.145 106.209 147.012 106.448C146.879 106.686 146.812 106.958 146.812 107.262V111.235H145.805V104.872ZM156.223 113.625C156.02 113.625 155.832 113.618 155.66 113.602V112.7L155.848 112.711C155.91 112.719 156.012 112.723 156.152 112.723C156.324 112.723 156.467 112.706 156.58 112.67C156.693 112.635 156.807 112.547 156.92 112.407C157.033 112.266 157.141 112.051 157.242 111.762L157.43 111.282L155.074 104.872H156.176L157.91 109.922H157.98L159.715 104.872H160.816L158.121 112.149C157.934 112.641 157.684 113.01 157.371 113.256C157.059 113.502 156.676 113.625 156.223 113.625ZM164.367 111.364C163.766 111.364 163.24 111.229 162.791 110.959C162.342 110.69 161.996 110.309 161.754 109.817C161.512 109.325 161.391 108.754 161.391 108.106C161.391 107.458 161.512 106.881 161.754 106.377C161.996 105.874 162.334 105.483 162.768 105.206C163.201 104.928 163.703 104.79 164.273 104.79C164.758 104.79 165.207 104.895 165.621 105.106C166.035 105.317 166.371 105.661 166.629 106.137C166.887 106.614 167.016 107.223 167.016 107.965V108.387H162.094V107.532H165.996C165.996 107.172 165.926 106.854 165.785 106.577C165.645 106.299 165.443 106.081 165.182 105.92C164.92 105.76 164.617 105.68 164.273 105.68C163.898 105.68 163.57 105.772 163.289 105.956C163.008 106.139 162.789 106.385 162.633 106.694C162.477 107.002 162.398 107.333 162.398 107.684V108.258C162.398 108.727 162.48 109.127 162.645 109.459C162.809 109.792 163.039 110.043 163.336 110.215C163.633 110.387 163.977 110.473 164.367 110.473C164.609 110.473 164.828 110.44 165.023 110.374C165.219 110.307 165.385 110.221 165.521 110.116C165.658 110.01 165.766 109.887 165.844 109.747H166.922C166.82 110.067 166.652 110.348 166.418 110.59C166.184 110.833 165.891 111.022 165.539 111.159C165.188 111.295 164.797 111.364 164.367 111.364ZM171.094 111.352C170.469 111.352 169.936 111.182 169.494 110.842C169.053 110.502 168.715 110.006 168.48 109.354C168.246 108.702 168.129 107.915 168.129 106.993C168.129 106.079 168.246 105.295 168.48 104.643C168.715 103.991 169.055 103.493 169.5 103.149C169.945 102.805 170.477 102.633 171.094 102.633C171.711 102.633 172.242 102.805 172.688 103.149C173.133 103.493 173.473 103.991 173.707 104.643C173.941 105.295 174.059 106.079 174.059 106.993C174.059 107.915 173.943 108.702 173.713 109.354C173.482 110.006 173.145 110.502 172.699 110.842C172.254 111.182 171.719 111.352 171.094 111.352ZM171.094 110.415C171.5 110.415 171.848 110.282 172.137 110.016C172.426 109.75 172.646 109.362 172.799 108.85C172.951 108.338 173.027 107.719 173.027 106.993C173.027 106.266 172.951 105.645 172.799 105.129C172.646 104.614 172.426 104.221 172.137 103.952C171.848 103.682 171.5 103.547 171.094 103.547C170.688 103.547 170.34 103.682 170.051 103.952C169.762 104.221 169.539 104.614 169.383 105.129C169.227 105.645 169.148 106.266 169.148 106.993C169.148 107.719 169.225 108.338 169.377 108.85C169.529 109.362 169.752 109.75 170.045 110.016C170.338 110.282 170.688 110.415 171.094 110.415ZM178.395 111.352C177.84 111.352 177.342 111.258 176.9 111.071C176.459 110.883 176.111 110.62 175.857 110.28C175.604 109.94 175.465 109.547 175.441 109.102H176.508C176.531 109.36 176.627 109.588 176.795 109.788C176.963 109.987 177.186 110.141 177.463 110.25C177.74 110.36 178.047 110.415 178.383 110.415C178.75 110.415 179.082 110.35 179.379 110.221C179.676 110.092 179.906 109.917 180.07 109.694C180.234 109.471 180.316 109.215 180.316 108.926C180.316 108.614 180.236 108.338 180.076 108.1C179.916 107.862 179.682 107.676 179.373 107.543C179.064 107.411 178.691 107.344 178.254 107.344H177.562V106.418H178.254C178.598 106.418 178.902 106.358 179.168 106.237C179.434 106.116 179.639 105.946 179.783 105.727C179.928 105.508 180 105.254 180 104.965C180 104.684 179.936 104.436 179.807 104.221C179.678 104.006 179.494 103.84 179.256 103.723C179.018 103.606 178.738 103.547 178.418 103.547C178.113 103.547 177.828 103.602 177.562 103.711C177.297 103.821 177.08 103.975 176.912 104.174C176.744 104.374 176.652 104.61 176.637 104.883H175.617C175.641 104.446 175.779 104.055 176.033 103.711C176.287 103.368 176.625 103.102 177.047 102.915C177.469 102.727 177.93 102.633 178.43 102.633C178.953 102.633 179.412 102.735 179.807 102.938C180.201 103.141 180.504 103.417 180.715 103.764C180.926 104.112 181.027 104.493 181.02 104.907C181.027 105.219 180.973 105.506 180.855 105.768C180.738 106.03 180.57 106.25 180.352 106.43C180.133 106.61 179.875 106.743 179.578 106.829V106.887C179.945 106.942 180.262 107.063 180.527 107.25C180.793 107.438 180.998 107.674 181.143 107.959C181.287 108.245 181.355 108.567 181.348 108.926C181.355 109.379 181.23 109.792 180.973 110.163C180.715 110.534 180.359 110.825 179.906 111.036C179.453 111.247 178.949 111.352 178.395 111.352ZM185.871 111.235H184.805V103.852H184.758L182.695 105.223V104.157L184.805 102.75H185.871V111.235ZM188.121 110.461L191.016 107.415C191.398 107.008 191.691 106.682 191.895 106.436C192.098 106.19 192.25 105.95 192.352 105.715C192.453 105.481 192.504 105.239 192.504 104.989C192.504 104.708 192.43 104.458 192.281 104.239C192.133 104.02 191.932 103.85 191.678 103.729C191.424 103.608 191.137 103.547 190.816 103.547C190.488 103.547 190.199 103.614 189.949 103.747C189.699 103.879 189.506 104.067 189.369 104.309C189.232 104.551 189.164 104.829 189.164 105.141H188.168C188.168 104.649 188.283 104.213 188.514 103.834C188.744 103.456 189.064 103.161 189.475 102.95C189.885 102.739 190.344 102.633 190.852 102.633C191.359 102.633 191.812 102.737 192.211 102.944C192.609 103.151 192.922 103.434 193.148 103.793C193.375 104.153 193.488 104.551 193.488 104.989C193.488 105.309 193.43 105.618 193.312 105.915C193.195 106.211 193 106.538 192.727 106.893C192.453 107.249 192.059 107.692 191.543 108.223L189.598 110.227V110.297H193.641V111.235H188.133L188.121 110.461ZM199.383 110.122C198.992 110.122 198.645 110.02 198.34 109.817C198.035 109.614 197.795 109.327 197.619 108.956C197.443 108.584 197.355 108.149 197.355 107.649C197.355 107.157 197.443 106.723 197.619 106.348C197.795 105.973 198.037 105.686 198.346 105.487C198.654 105.288 199.004 105.188 199.395 105.188C199.652 105.188 199.873 105.233 200.057 105.323C200.24 105.413 200.383 105.516 200.484 105.633C200.586 105.75 200.668 105.872 200.73 105.997H200.789V105.282H201.68V109.208H200.789C200.711 109.348 200.623 109.483 200.525 109.612C200.428 109.741 200.283 109.858 200.092 109.963C199.9 110.069 199.664 110.122 199.383 110.122ZM199.535 109.266C199.809 109.266 200.039 109.198 200.227 109.061C200.414 108.924 200.557 108.735 200.654 108.493C200.752 108.25 200.801 107.965 200.801 107.637C200.801 107.317 200.752 107.036 200.654 106.793C200.557 106.551 200.414 106.366 200.227 106.237C200.039 106.108 199.809 106.043 199.535 106.043C199.27 106.043 199.041 106.112 198.85 106.249C198.658 106.385 198.514 106.575 198.416 106.817C198.318 107.059 198.27 107.333 198.27 107.637C198.27 107.942 198.32 108.217 198.422 108.463C198.523 108.709 198.67 108.905 198.861 109.049C199.053 109.194 199.277 109.266 199.535 109.266ZM199.605 112.454C198.66 112.454 197.84 112.26 197.145 111.874C196.449 111.487 195.916 110.932 195.545 110.209C195.174 109.487 194.988 108.633 194.988 107.649C194.988 106.735 195.188 105.915 195.586 105.188C195.984 104.461 196.537 103.891 197.244 103.477C197.951 103.063 198.754 102.856 199.652 102.856C200.574 102.856 201.389 103.047 202.096 103.43C202.803 103.813 203.354 104.342 203.748 105.018C204.143 105.694 204.336 106.45 204.328 107.286C204.328 107.872 204.236 108.383 204.053 108.821C203.869 109.258 203.615 109.592 203.291 109.823C202.967 110.053 202.605 110.168 202.207 110.168C201.957 110.168 201.729 110.122 201.521 110.028C201.314 109.934 201.152 109.807 201.035 109.647C200.918 109.487 200.859 109.313 200.859 109.125L201.68 108.704C201.688 108.93 201.74 109.1 201.838 109.213C201.936 109.327 202.078 109.383 202.266 109.383C202.508 109.383 202.721 109.295 202.904 109.12C203.088 108.944 203.23 108.7 203.332 108.387C203.434 108.075 203.484 107.719 203.484 107.321C203.492 106.594 203.332 105.954 203.004 105.399C202.676 104.844 202.221 104.417 201.639 104.116C201.057 103.815 200.395 103.665 199.652 103.665C198.902 103.665 198.236 103.842 197.654 104.198C197.072 104.553 196.623 105.036 196.307 105.645C195.99 106.254 195.832 106.922 195.832 107.649C195.832 108.446 195.977 109.147 196.266 109.752C196.555 110.358 196.982 110.827 197.549 111.159C198.115 111.491 198.801 111.653 199.605 111.645C200.043 111.637 200.414 111.616 200.719 111.581C201.023 111.545 201.344 111.481 201.68 111.387V112.184C201.359 112.27 201.027 112.336 200.684 112.383C200.34 112.43 199.98 112.454 199.605 112.454ZM206.754 111.235H205.746V104.872H206.719V105.868H206.801C206.965 105.524 207.199 105.258 207.504 105.071C207.809 104.883 208.195 104.79 208.664 104.79C209.102 104.79 209.48 104.877 209.801 105.053C210.121 105.229 210.369 105.497 210.545 105.856C210.721 106.215 210.809 106.661 210.809 107.192V111.235H209.801V107.262C209.801 106.934 209.744 106.653 209.631 106.418C209.518 106.184 209.354 106.004 209.139 105.879C208.924 105.754 208.664 105.692 208.359 105.692C208.047 105.692 207.77 105.758 207.527 105.891C207.285 106.024 207.096 106.221 206.959 106.483C206.822 106.745 206.754 107.055 206.754 107.415V111.235ZM216.316 108.282C216.246 108.282 215.906 108.305 215.297 108.352L214.629 108.399C214.152 108.43 213.783 108.534 213.521 108.709C213.26 108.885 213.129 109.141 213.129 109.477C213.129 109.696 213.186 109.879 213.299 110.028C213.412 110.176 213.57 110.29 213.773 110.368C213.977 110.446 214.207 110.485 214.465 110.485C214.832 110.485 215.148 110.413 215.414 110.268C215.68 110.124 215.883 109.932 216.023 109.694C216.164 109.456 216.234 109.2 216.234 108.926V106.946C216.234 106.672 216.182 106.44 216.076 106.249C215.971 106.057 215.811 105.913 215.596 105.815C215.381 105.717 215.113 105.668 214.793 105.668C214.41 105.668 214.096 105.747 213.85 105.903C213.604 106.059 213.441 106.266 213.363 106.524H212.309C212.355 106.18 212.49 105.877 212.713 105.616C212.936 105.354 213.23 105.151 213.598 105.006C213.965 104.862 214.379 104.79 214.84 104.79C215.207 104.79 215.566 104.844 215.918 104.954C216.27 105.063 216.576 105.284 216.838 105.616C217.1 105.948 217.23 106.422 217.23 107.04V111.235H216.234V110.368H216.188C216.109 110.532 215.99 110.69 215.83 110.842C215.67 110.995 215.459 111.124 215.197 111.229C214.936 111.334 214.633 111.387 214.289 111.387C213.883 111.387 213.516 111.309 213.188 111.153C212.859 110.997 212.6 110.77 212.408 110.473C212.217 110.176 212.121 109.829 212.121 109.43C212.121 108.766 212.348 108.299 212.801 108.03C213.254 107.76 213.824 107.602 214.512 107.555C214.59 107.547 214.965 107.524 215.637 107.485L216.305 107.461L216.316 108.282ZM221.496 111.235H220.453L218.109 104.872H219.211L220.945 109.922H221.016L222.75 104.872H223.852L221.496 111.235ZM227.402 111.364C226.801 111.364 226.275 111.229 225.826 110.959C225.377 110.69 225.031 110.309 224.789 109.817C224.547 109.325 224.426 108.754 224.426 108.106C224.426 107.458 224.547 106.881 224.789 106.377C225.031 105.874 225.369 105.483 225.803 105.206C226.236 104.928 226.738 104.79 227.309 104.79C227.793 104.79 228.242 104.895 228.656 105.106C229.07 105.317 229.406 105.661 229.664 106.137C229.922 106.614 230.051 107.223 230.051 107.965V108.387H225.129V107.532H229.031C229.031 107.172 228.961 106.854 228.82 106.577C228.68 106.299 228.479 106.081 228.217 105.92C227.955 105.76 227.652 105.68 227.309 105.68C226.934 105.68 226.605 105.772 226.324 105.956C226.043 106.139 225.824 106.385 225.668 106.694C225.512 107.002 225.434 107.333 225.434 107.684V108.258C225.434 108.727 225.516 109.127 225.68 109.459C225.844 109.792 226.074 110.043 226.371 110.215C226.668 110.387 227.012 110.473 227.402 110.473C227.645 110.473 227.863 110.44 228.059 110.374C228.254 110.307 228.42 110.221 228.557 110.116C228.693 110.01 228.801 109.887 228.879 109.747H229.957C229.855 110.067 229.688 110.348 229.453 110.59C229.219 110.833 228.926 111.022 228.574 111.159C228.223 111.295 227.832 111.364 227.402 111.364ZM231.363 104.872H232.336V105.844H232.406C232.523 105.516 232.732 105.254 233.033 105.059C233.334 104.864 233.672 104.766 234.047 104.766C234.242 104.766 234.418 104.774 234.574 104.79V105.809C234.535 105.793 234.453 105.778 234.328 105.762C234.203 105.747 234.082 105.739 233.965 105.739C233.668 105.739 233.398 105.803 233.156 105.932C232.914 106.061 232.723 106.239 232.582 106.465C232.441 106.692 232.371 106.946 232.371 107.227V111.235H231.363V104.872ZM235.547 111.305C235.414 111.305 235.289 111.27 235.172 111.2C235.055 111.129 234.963 111.036 234.896 110.918C234.83 110.801 234.797 110.676 234.797 110.543C234.797 110.411 234.83 110.286 234.896 110.168C234.963 110.051 235.055 109.959 235.172 109.893C235.289 109.827 235.414 109.793 235.547 109.793C235.68 109.793 235.805 109.827 235.922 109.893C236.039 109.959 236.131 110.051 236.197 110.168C236.264 110.286 236.297 110.411 236.297 110.543C236.297 110.676 236.264 110.801 236.197 110.918C236.131 111.036 236.039 111.129 235.922 111.2C235.805 111.27 235.68 111.305 235.547 111.305ZM240.48 111.364C239.895 111.364 239.381 111.223 238.939 110.942C238.498 110.661 238.16 110.272 237.926 109.776C237.691 109.28 237.574 108.715 237.574 108.083C237.574 107.442 237.695 106.872 237.938 106.372C238.18 105.872 238.518 105.483 238.951 105.206C239.385 104.928 239.887 104.79 240.457 104.79C240.91 104.79 241.318 104.872 241.682 105.036C242.045 105.2 242.34 105.434 242.566 105.739C242.793 106.043 242.934 106.395 242.988 106.793H241.98C241.934 106.59 241.844 106.405 241.711 106.237C241.578 106.069 241.408 105.934 241.201 105.833C240.994 105.731 240.754 105.68 240.48 105.68C240.105 105.68 239.775 105.778 239.49 105.973C239.205 106.168 238.982 106.444 238.822 106.799C238.662 107.155 238.582 107.571 238.582 108.047C238.582 108.532 238.66 108.956 238.816 109.319C238.973 109.682 239.193 109.963 239.479 110.163C239.764 110.362 240.098 110.461 240.48 110.461C240.73 110.461 240.959 110.418 241.166 110.333C241.373 110.247 241.547 110.12 241.688 109.952C241.828 109.784 241.926 109.586 241.98 109.36H242.988C242.934 109.743 242.797 110.084 242.578 110.385C242.359 110.686 242.07 110.924 241.711 111.1C241.352 111.276 240.941 111.364 240.48 111.364ZM246.832 111.364C246.262 111.364 245.756 111.227 245.314 110.954C244.873 110.68 244.531 110.295 244.289 109.799C244.047 109.303 243.926 108.731 243.926 108.083C243.926 107.426 244.047 106.85 244.289 106.354C244.531 105.858 244.873 105.473 245.314 105.2C245.756 104.926 246.262 104.79 246.832 104.79C247.402 104.79 247.906 104.926 248.344 105.2C248.781 105.473 249.119 105.858 249.357 106.354C249.596 106.85 249.715 107.426 249.715 108.083C249.715 108.731 249.596 109.303 249.357 109.799C249.119 110.295 248.781 110.68 248.344 110.954C247.906 111.227 247.402 111.364 246.832 111.364ZM246.832 110.473C247.246 110.473 247.594 110.364 247.875 110.145C248.156 109.926 248.365 109.637 248.502 109.278C248.639 108.918 248.707 108.52 248.707 108.083C248.707 107.645 248.639 107.245 248.502 106.881C248.365 106.518 248.156 106.227 247.875 106.008C247.594 105.79 247.246 105.68 246.832 105.68C246.418 105.68 246.068 105.79 245.783 106.008C245.498 106.227 245.285 106.518 245.145 106.881C245.004 107.245 244.934 107.645 244.934 108.083C244.934 108.52 245.004 108.918 245.145 109.278C245.285 109.637 245.498 109.926 245.783 110.145C246.068 110.364 246.418 110.473 246.832 110.473ZM251.039 104.872H252.012V105.868H252.094C252.234 105.524 252.451 105.258 252.744 105.071C253.037 104.883 253.391 104.79 253.805 104.79C254.078 104.79 254.324 104.831 254.543 104.913C254.762 104.995 254.951 105.116 255.111 105.276C255.271 105.436 255.402 105.633 255.504 105.868H255.574C255.684 105.641 255.83 105.448 256.014 105.288C256.197 105.127 256.414 105.004 256.664 104.918C256.914 104.833 257.188 104.79 257.484 104.79C257.875 104.79 258.215 104.87 258.504 105.03C258.793 105.19 259.02 105.432 259.184 105.756C259.348 106.081 259.43 106.489 259.43 106.981V111.235H258.422V106.993C258.422 106.547 258.301 106.219 258.059 106.008C257.816 105.797 257.508 105.692 257.133 105.692C256.844 105.692 256.594 105.752 256.383 105.874C256.172 105.995 256.012 106.161 255.902 106.372C255.793 106.583 255.738 106.825 255.738 107.098V111.235H254.719V106.887C254.719 106.653 254.666 106.444 254.561 106.26C254.455 106.077 254.309 105.936 254.121 105.838C253.934 105.741 253.719 105.692 253.477 105.692C253.227 105.692 252.992 105.758 252.773 105.891C252.555 106.024 252.379 106.209 252.246 106.448C252.113 106.686 252.047 106.958 252.047 107.262V111.235H251.039V104.872ZM261.457 113.637H260.59L261.234 110.45H262.371L261.457 113.637ZM271.453 110.262H271.383C271.25 110.465 271.125 110.637 271.008 110.778C270.891 110.918 270.709 111.051 270.463 111.176C270.217 111.301 269.906 111.364 269.531 111.364C269.008 111.364 268.541 111.229 268.131 110.959C267.721 110.69 267.4 110.305 267.17 109.805C266.939 109.305 266.824 108.727 266.824 108.071C266.824 107.407 266.939 106.827 267.17 106.331C267.4 105.834 267.721 105.454 268.131 105.188C268.541 104.922 269.012 104.79 269.543 104.79C269.918 104.79 270.229 104.85 270.475 104.971C270.721 105.092 270.902 105.223 271.02 105.364C271.137 105.504 271.258 105.676 271.383 105.879H271.488V104.872H272.473V113.625H271.453V110.262ZM269.672 110.461C270.055 110.461 270.383 110.36 270.656 110.157C270.93 109.954 271.137 109.67 271.277 109.307C271.418 108.944 271.488 108.524 271.488 108.047C271.488 107.571 271.42 107.157 271.283 106.805C271.146 106.454 270.941 106.18 270.668 105.985C270.395 105.79 270.062 105.692 269.672 105.692C269.281 105.692 268.949 105.793 268.676 105.997C268.402 106.2 268.195 106.479 268.055 106.834C267.914 107.19 267.844 107.594 267.844 108.047C267.844 108.508 267.914 108.92 268.055 109.284C268.195 109.647 268.402 109.934 268.676 110.145C268.949 110.356 269.281 110.461 269.672 110.461ZM276.68 111.364C276.109 111.364 275.604 111.227 275.162 110.954C274.721 110.68 274.379 110.295 274.137 109.799C273.895 109.303 273.773 108.731 273.773 108.083C273.773 107.426 273.895 106.85 274.137 106.354C274.379 105.858 274.721 105.473 275.162 105.2C275.604 104.926 276.109 104.79 276.68 104.79C277.25 104.79 277.754 104.926 278.191 105.2C278.629 105.473 278.967 105.858 279.205 106.354C279.443 106.85 279.562 107.426 279.562 108.083C279.562 108.731 279.443 109.303 279.205 109.799C278.967 110.295 278.629 110.68 278.191 110.954C277.754 111.227 277.25 111.364 276.68 111.364ZM276.68 110.473C277.094 110.473 277.441 110.364 277.723 110.145C278.004 109.926 278.213 109.637 278.35 109.278C278.486 108.918 278.555 108.52 278.555 108.083C278.555 107.645 278.486 107.245 278.35 106.881C278.213 106.518 278.004 106.227 277.723 106.008C277.441 105.79 277.094 105.68 276.68 105.68C276.266 105.68 275.916 105.79 275.631 106.008C275.346 106.227 275.133 106.518 274.992 106.881C274.852 107.245 274.781 107.645 274.781 108.083C274.781 108.52 274.852 108.918 274.992 109.278C275.133 109.637 275.346 109.926 275.631 110.145C275.916 110.364 276.266 110.473 276.68 110.473ZM283.488 111.364C282.902 111.364 282.389 111.223 281.947 110.942C281.506 110.661 281.168 110.272 280.934 109.776C280.699 109.28 280.582 108.715 280.582 108.083C280.582 107.442 280.703 106.872 280.945 106.372C281.188 105.872 281.525 105.483 281.959 105.206C282.393 104.928 282.895 104.79 283.465 104.79C283.918 104.79 284.326 104.872 284.689 105.036C285.053 105.2 285.348 105.434 285.574 105.739C285.801 106.043 285.941 106.395 285.996 106.793H284.988C284.941 106.59 284.852 106.405 284.719 106.237C284.586 106.069 284.416 105.934 284.209 105.833C284.002 105.731 283.762 105.68 283.488 105.68C283.113 105.68 282.783 105.778 282.498 105.973C282.213 106.168 281.99 106.444 281.83 106.799C281.67 107.155 281.59 107.571 281.59 108.047C281.59 108.532 281.668 108.956 281.824 109.319C281.98 109.682 282.201 109.963 282.486 110.163C282.771 110.362 283.105 110.461 283.488 110.461C283.738 110.461 283.967 110.418 284.174 110.333C284.381 110.247 284.555 110.12 284.695 109.952C284.836 109.784 284.934 109.586 284.988 109.36H285.996C285.941 109.743 285.805 110.084 285.586 110.385C285.367 110.686 285.078 110.924 284.719 111.1C284.359 111.276 283.949 111.364 283.488 111.364ZM288.246 111.235H287.238V104.872H288.211V105.868H288.293C288.457 105.524 288.691 105.258 288.996 105.071C289.301 104.883 289.688 104.79 290.156 104.79C290.594 104.79 290.973 104.877 291.293 105.053C291.613 105.229 291.861 105.497 292.037 105.856C292.213 106.215 292.301 106.661 292.301 107.192V111.235H291.293V107.262C291.293 106.934 291.236 106.653 291.123 106.418C291.01 106.184 290.846 106.004 290.631 105.879C290.416 105.754 290.156 105.692 289.852 105.692C289.539 105.692 289.262 105.758 289.02 105.891C288.777 106.024 288.588 106.221 288.451 106.483C288.314 106.745 288.246 107.055 288.246 107.415V111.235ZM296.438 111.235H295.371V103.852H295.324L293.262 105.223V104.157L295.371 102.75H296.438V111.235ZM301.652 111.352C301.105 111.344 300.602 111.215 300.141 110.965C299.68 110.715 299.301 110.292 299.004 109.694C298.707 109.096 298.559 108.305 298.559 107.321C298.559 106.329 298.689 105.481 298.951 104.778C299.213 104.075 299.584 103.542 300.064 103.178C300.545 102.815 301.117 102.633 301.781 102.633C302.273 102.633 302.713 102.727 303.1 102.915C303.486 103.102 303.805 103.366 304.055 103.706C304.305 104.045 304.465 104.438 304.535 104.883H303.492C303.422 104.625 303.312 104.397 303.164 104.198C303.016 103.999 302.824 103.844 302.59 103.735C302.355 103.625 302.086 103.571 301.781 103.571C301.32 103.571 300.924 103.698 300.592 103.952C300.26 104.206 300.004 104.575 299.824 105.059C299.645 105.543 299.555 106.125 299.555 106.805H299.66C299.824 106.571 300.018 106.37 300.24 106.202C300.463 106.034 300.711 105.905 300.984 105.815C301.258 105.725 301.543 105.68 301.84 105.68C302.34 105.68 302.803 105.801 303.229 106.043C303.654 106.286 303.99 106.62 304.236 107.045C304.482 107.471 304.605 107.954 304.605 108.493C304.605 109.024 304.482 109.508 304.236 109.946C303.99 110.383 303.643 110.727 303.193 110.977C302.744 111.227 302.23 111.352 301.652 111.352ZM301.652 110.426C302.012 110.426 302.338 110.34 302.631 110.168C302.924 109.997 303.156 109.762 303.328 109.465C303.5 109.168 303.586 108.848 303.586 108.504C303.586 108.153 303.504 107.833 303.34 107.543C303.176 107.254 302.949 107.026 302.66 106.858C302.371 106.69 302.043 106.606 301.676 106.606C301.316 106.606 300.986 106.694 300.686 106.87C300.385 107.045 300.146 107.28 299.971 107.573C299.795 107.866 299.703 108.18 299.695 108.516C299.695 108.844 299.781 109.155 299.953 109.448C300.125 109.741 300.359 109.977 300.656 110.157C300.953 110.336 301.285 110.426 301.652 110.426ZM310.266 110.122C309.875 110.122 309.527 110.02 309.223 109.817C308.918 109.614 308.678 109.327 308.502 108.956C308.326 108.584 308.238 108.149 308.238 107.649C308.238 107.157 308.326 106.723 308.502 106.348C308.678 105.973 308.92 105.686 309.229 105.487C309.537 105.288 309.887 105.188 310.277 105.188C310.535 105.188 310.756 105.233 310.939 105.323C311.123 105.413 311.266 105.516 311.367 105.633C311.469 105.75 311.551 105.872 311.613 105.997H311.672V105.282H312.562V109.208H311.672C311.594 109.348 311.506 109.483 311.408 109.612C311.311 109.741 311.166 109.858 310.975 109.963C310.783 110.069 310.547 110.122 310.266 110.122ZM310.418 109.266C310.691 109.266 310.922 109.198 311.109 109.061C311.297 108.924 311.439 108.735 311.537 108.493C311.635 108.25 311.684 107.965 311.684 107.637C311.684 107.317 311.635 107.036 311.537 106.793C311.439 106.551 311.297 106.366 311.109 106.237C310.922 106.108 310.691 106.043 310.418 106.043C310.152 106.043 309.924 106.112 309.732 106.249C309.541 106.385 309.396 106.575 309.299 106.817C309.201 107.059 309.152 107.333 309.152 107.637C309.152 107.942 309.203 108.217 309.305 108.463C309.406 108.709 309.553 108.905 309.744 109.049C309.936 109.194 310.16 109.266 310.418 109.266ZM310.488 112.454C309.543 112.454 308.723 112.26 308.027 111.874C307.332 111.487 306.799 110.932 306.428 110.209C306.057 109.487 305.871 108.633 305.871 107.649C305.871 106.735 306.07 105.915 306.469 105.188C306.867 104.461 307.42 103.891 308.127 103.477C308.834 103.063 309.637 102.856 310.535 102.856C311.457 102.856 312.271 103.047 312.979 103.43C313.686 103.813 314.236 104.342 314.631 105.018C315.025 105.694 315.219 106.45 315.211 107.286C315.211 107.872 315.119 108.383 314.936 108.821C314.752 109.258 314.498 109.592 314.174 109.823C313.85 110.053 313.488 110.168 313.09 110.168C312.84 110.168 312.611 110.122 312.404 110.028C312.197 109.934 312.035 109.807 311.918 109.647C311.801 109.487 311.742 109.313 311.742 109.125L312.562 108.704C312.57 108.93 312.623 109.1 312.721 109.213C312.818 109.327 312.961 109.383 313.148 109.383C313.391 109.383 313.604 109.295 313.787 109.12C313.971 108.944 314.113 108.7 314.215 108.387C314.316 108.075 314.367 107.719 314.367 107.321C314.375 106.594 314.215 105.954 313.887 105.399C313.559 104.844 313.104 104.417 312.521 104.116C311.939 103.815 311.277 103.665 310.535 103.665C309.785 103.665 309.119 103.842 308.537 104.198C307.955 104.553 307.506 105.036 307.189 105.645C306.873 106.254 306.715 106.922 306.715 107.649C306.715 108.446 306.859 109.147 307.148 109.752C307.438 110.358 307.865 110.827 308.432 111.159C308.998 111.491 309.684 111.653 310.488 111.645C310.926 111.637 311.297 111.616 311.602 111.581C311.906 111.545 312.227 111.481 312.562 111.387V112.184C312.242 112.27 311.91 112.336 311.566 112.383C311.223 112.43 310.863 112.454 310.488 112.454ZM319.207 113.754C318.699 113.754 318.248 113.682 317.854 113.538C317.459 113.393 317.146 113.182 316.916 112.905C316.686 112.627 316.551 112.293 316.512 111.903H317.566C317.637 112.223 317.814 112.465 318.1 112.629C318.385 112.793 318.754 112.875 319.207 112.875C319.77 112.875 320.203 112.75 320.508 112.5C320.812 112.25 320.965 111.868 320.965 111.352V110.063H320.883C320.773 110.25 320.656 110.417 320.531 110.561C320.406 110.706 320.219 110.838 319.969 110.959C319.719 111.081 319.406 111.141 319.031 111.141C318.516 111.141 318.053 111.014 317.643 110.76C317.232 110.506 316.91 110.139 316.676 109.659C316.441 109.178 316.324 108.614 316.324 107.965C316.324 107.325 316.439 106.764 316.67 106.284C316.9 105.803 317.221 105.434 317.631 105.176C318.041 104.918 318.512 104.79 319.043 104.79C319.418 104.79 319.729 104.85 319.975 104.971C320.221 105.092 320.398 105.215 320.508 105.34C320.617 105.465 320.75 105.645 320.906 105.879H320.988V104.872H321.973V111.411C321.973 111.934 321.854 112.372 321.615 112.723C321.377 113.075 321.051 113.334 320.637 113.502C320.223 113.67 319.746 113.754 319.207 113.754ZM319.172 110.239C319.555 110.239 319.883 110.149 320.156 109.969C320.43 109.79 320.637 109.534 320.777 109.202C320.918 108.87 320.988 108.469 320.988 108C320.988 107.54 320.918 107.135 320.777 106.788C320.637 106.44 320.432 106.17 320.162 105.979C319.893 105.788 319.562 105.692 319.172 105.692C318.781 105.692 318.449 105.793 318.176 105.997C317.902 106.2 317.695 106.475 317.555 106.823C317.414 107.17 317.344 107.563 317.344 108C317.344 108.446 317.414 108.836 317.555 109.172C317.695 109.508 317.902 109.77 318.176 109.958C318.449 110.145 318.781 110.239 319.172 110.239ZM323.578 104.872H324.551V105.868H324.633C324.773 105.524 324.99 105.258 325.283 105.071C325.576 104.883 325.93 104.79 326.344 104.79C326.617 104.79 326.863 104.831 327.082 104.913C327.301 104.995 327.49 105.116 327.65 105.276C327.811 105.436 327.941 105.633 328.043 105.868H328.113C328.223 105.641 328.369 105.448 328.553 105.288C328.736 105.127 328.953 105.004 329.203 104.918C329.453 104.833 329.727 104.79 330.023 104.79C330.414 104.79 330.754 104.87 331.043 105.03C331.332 105.19 331.559 105.432 331.723 105.756C331.887 106.081 331.969 106.489 331.969 106.981V111.235H330.961V106.993C330.961 106.547 330.84 106.219 330.598 106.008C330.355 105.797 330.047 105.692 329.672 105.692C329.383 105.692 329.133 105.752 328.922 105.874C328.711 105.995 328.551 106.161 328.441 106.372C328.332 106.583 328.277 106.825 328.277 107.098V111.235H327.258V106.887C327.258 106.653 327.205 106.444 327.1 106.26C326.994 106.077 326.848 105.936 326.66 105.838C326.473 105.741 326.258 105.692 326.016 105.692C325.766 105.692 325.531 105.758 325.312 105.891C325.094 106.024 324.918 106.209 324.785 106.448C324.652 106.686 324.586 106.958 324.586 107.262V111.235H323.578V104.872ZM337.477 108.282C337.406 108.282 337.066 108.305 336.457 108.352L335.789 108.399C335.312 108.43 334.943 108.534 334.682 108.709C334.42 108.885 334.289 109.141 334.289 109.477C334.289 109.696 334.346 109.879 334.459 110.028C334.572 110.176 334.73 110.29 334.934 110.368C335.137 110.446 335.367 110.485 335.625 110.485C335.992 110.485 336.309 110.413 336.574 110.268C336.84 110.124 337.043 109.932 337.184 109.694C337.324 109.456 337.395 109.2 337.395 108.926V106.946C337.395 106.672 337.342 106.44 337.236 106.249C337.131 106.057 336.971 105.913 336.756 105.815C336.541 105.717 336.273 105.668 335.953 105.668C335.57 105.668 335.256 105.747 335.01 105.903C334.764 106.059 334.602 106.266 334.523 106.524H333.469C333.516 106.18 333.65 105.877 333.873 105.616C334.096 105.354 334.391 105.151 334.758 105.006C335.125 104.862 335.539 104.79 336 104.79C336.367 104.79 336.727 104.844 337.078 104.954C337.43 105.063 337.736 105.284 337.998 105.616C338.26 105.948 338.391 106.422 338.391 107.04V111.235H337.395V110.368H337.348C337.27 110.532 337.15 110.69 336.99 110.842C336.83 110.995 336.619 111.124 336.357 111.229C336.096 111.334 335.793 111.387 335.449 111.387C335.043 111.387 334.676 111.309 334.348 111.153C334.02 110.997 333.76 110.77 333.568 110.473C333.377 110.176 333.281 109.829 333.281 109.43C333.281 108.766 333.508 108.299 333.961 108.03C334.414 107.76 334.984 107.602 335.672 107.555C335.75 107.547 336.125 107.524 336.797 107.485L337.465 107.461L337.477 108.282ZM340.008 104.872H341.016V111.235H340.008V104.872ZM340.512 103.817C340.387 103.817 340.27 103.788 340.16 103.729C340.051 103.67 339.965 103.588 339.902 103.483C339.84 103.377 339.809 103.266 339.809 103.149C339.809 103.024 339.84 102.911 339.902 102.809C339.965 102.708 340.051 102.627 340.16 102.569C340.27 102.51 340.387 102.481 340.512 102.481C340.645 102.481 340.766 102.51 340.875 102.569C340.984 102.627 341.07 102.708 341.133 102.809C341.195 102.911 341.227 103.024 341.227 103.149C341.227 103.266 341.195 103.377 341.133 103.483C341.07 103.588 340.984 103.67 340.875 103.729C340.766 103.788 340.645 103.817 340.512 103.817ZM343.629 111.235H342.621V102.75H343.629V111.235ZM345.949 111.305C345.816 111.305 345.691 111.27 345.574 111.2C345.457 111.129 345.365 111.036 345.299 110.918C345.232 110.801 345.199 110.676 345.199 110.543C345.199 110.411 345.232 110.286 345.299 110.168C345.365 110.051 345.457 109.959 345.574 109.893C345.691 109.827 345.816 109.793 345.949 109.793C346.082 109.793 346.207 109.827 346.324 109.893C346.441 109.959 346.533 110.051 346.6 110.168C346.666 110.286 346.699 110.411 346.699 110.543C346.699 110.676 346.666 110.801 346.6 110.918C346.533 111.036 346.441 111.129 346.324 111.2C346.207 111.27 346.082 111.305 345.949 111.305ZM350.883 111.364C350.297 111.364 349.783 111.223 349.342 110.942C348.9 110.661 348.562 110.272 348.328 109.776C348.094 109.28 347.977 108.715 347.977 108.083C347.977 107.442 348.098 106.872 348.34 106.372C348.582 105.872 348.92 105.483 349.354 105.206C349.787 104.928 350.289 104.79 350.859 104.79C351.312 104.79 351.721 104.872 352.084 105.036C352.447 105.2 352.742 105.434 352.969 105.739C353.195 106.043 353.336 106.395 353.391 106.793H352.383C352.336 106.59 352.246 106.405 352.113 106.237C351.98 106.069 351.811 105.934 351.604 105.833C351.396 105.731 351.156 105.68 350.883 105.68C350.508 105.68 350.178 105.778 349.893 105.973C349.607 106.168 349.385 106.444 349.225 106.799C349.064 107.155 348.984 107.571 348.984 108.047C348.984 108.532 349.062 108.956 349.219 109.319C349.375 109.682 349.596 109.963 349.881 110.163C350.166 110.362 350.5 110.461 350.883 110.461C351.133 110.461 351.361 110.418 351.568 110.333C351.775 110.247 351.949 110.12 352.09 109.952C352.23 109.784 352.328 109.586 352.383 109.36H353.391C353.336 109.743 353.199 110.084 352.98 110.385C352.762 110.686 352.473 110.924 352.113 111.1C351.754 111.276 351.344 111.364 350.883 111.364ZM357.234 111.364C356.664 111.364 356.158 111.227 355.717 110.954C355.275 110.68 354.934 110.295 354.691 109.799C354.449 109.303 354.328 108.731 354.328 108.083C354.328 107.426 354.449 106.85 354.691 106.354C354.934 105.858 355.275 105.473 355.717 105.2C356.158 104.926 356.664 104.79 357.234 104.79C357.805 104.79 358.309 104.926 358.746 105.2C359.184 105.473 359.521 105.858 359.76 106.354C359.998 106.85 360.117 107.426 360.117 108.083C360.117 108.731 359.998 109.303 359.76 109.799C359.521 110.295 359.184 110.68 358.746 110.954C358.309 111.227 357.805 111.364 357.234 111.364ZM357.234 110.473C357.648 110.473 357.996 110.364 358.277 110.145C358.559 109.926 358.768 109.637 358.904 109.278C359.041 108.918 359.109 108.52 359.109 108.083C359.109 107.645 359.041 107.245 358.904 106.881C358.768 106.518 358.559 106.227 358.277 106.008C357.996 105.79 357.648 105.68 357.234 105.68C356.82 105.68 356.471 105.79 356.186 106.008C355.9 106.227 355.688 106.518 355.547 106.881C355.406 107.245 355.336 107.645 355.336 108.083C355.336 108.52 355.406 108.918 355.547 109.278C355.688 109.637 355.9 109.926 356.186 110.145C356.471 110.364 356.82 110.473 357.234 110.473ZM361.441 104.872H362.414V105.868H362.496C362.637 105.524 362.854 105.258 363.146 105.071C363.439 104.883 363.793 104.79 364.207 104.79C364.48 104.79 364.727 104.831 364.945 104.913C365.164 104.995 365.354 105.116 365.514 105.276C365.674 105.436 365.805 105.633 365.906 105.868H365.977C366.086 105.641 366.232 105.448 366.416 105.288C366.6 105.127 366.816 105.004 367.066 104.918C367.316 104.833 367.59 104.79 367.887 104.79C368.277 104.79 368.617 104.87 368.906 105.03C369.195 105.19 369.422 105.432 369.586 105.756C369.75 106.081 369.832 106.489 369.832 106.981V111.235H368.824V106.993C368.824 106.547 368.703 106.219 368.461 106.008C368.219 105.797 367.91 105.692 367.535 105.692C367.246 105.692 366.996 105.752 366.785 105.874C366.574 105.995 366.414 106.161 366.305 106.372C366.195 106.583 366.141 106.825 366.141 107.098V111.235H365.121V106.887C365.121 106.653 365.068 106.444 364.963 106.26C364.857 106.077 364.711 105.936 364.523 105.838C364.336 105.741 364.121 105.692 363.879 105.692C363.629 105.692 363.395 105.758 363.176 105.891C362.957 106.024 362.781 106.209 362.648 106.448C362.516 106.686 362.449 106.958 362.449 107.262V111.235H361.441V104.872Z" fill="#BABBC2"/>
<path d="M101.461 124.243C101.461 124.836 101.266 125.383 100.875 125.883C100.484 126.383 99.9766 126.799 99.3516 127.131C98.7266 127.463 98.0586 127.692 97.3477 127.817L96.9844 127.09C97.5938 126.997 98.1816 126.811 98.748 126.534C99.3145 126.256 99.7734 125.917 100.125 125.514C100.477 125.112 100.652 124.688 100.652 124.243V123.797H101.461V124.243ZM101.684 124.243C101.684 124.688 101.859 125.112 102.211 125.514C102.562 125.917 103.021 126.256 103.588 126.534C104.154 126.811 104.742 126.997 105.352 127.09L105.012 127.817C104.293 127.692 103.619 127.465 102.99 127.137C102.361 126.809 101.854 126.393 101.467 125.889C101.08 125.385 100.887 124.836 100.887 124.243V123.797H101.684V124.243ZM101.602 133.184H100.699V129.2H101.602V133.184ZM105.914 129.469H96.4219V128.708H105.914V129.469ZM105.012 124.172H97.3125V123.422H105.012V124.172ZM116.332 131.825H106.793V131.063H116.332V131.825ZM111.961 131.321H111.059V128.508H111.961V131.321ZM111.832 124.278C111.832 124.981 111.627 125.639 111.217 126.252C110.807 126.866 110.275 127.377 109.623 127.788C108.971 128.198 108.289 128.477 107.578 128.625L107.168 127.864C107.785 127.754 108.393 127.524 108.99 127.172C109.588 126.821 110.076 126.389 110.455 125.877C110.834 125.366 111.023 124.833 111.023 124.278V123.481H111.832V124.278ZM111.984 124.278C111.984 124.833 112.178 125.366 112.564 125.877C112.951 126.389 113.443 126.821 114.041 127.172C114.639 127.524 115.246 127.754 115.863 127.864L115.453 128.625C114.742 128.477 114.061 128.198 113.408 127.788C112.756 127.377 112.225 126.868 111.814 126.258C111.404 125.649 111.199 124.989 111.199 124.278V123.481H111.984V124.278ZM121.277 131.11C121.145 131.11 121.02 131.075 120.902 131.004C120.785 130.934 120.693 130.84 120.627 130.723C120.561 130.606 120.527 130.481 120.527 130.348C120.527 130.215 120.561 130.09 120.627 129.973C120.693 129.856 120.785 129.764 120.902 129.698C121.02 129.631 121.145 129.598 121.277 129.598C121.41 129.598 121.535 129.631 121.652 129.698C121.77 129.764 121.861 129.856 121.928 129.973C121.994 130.09 122.027 130.215 122.027 130.348C122.027 130.481 121.994 130.606 121.928 130.723C121.861 130.84 121.77 130.934 121.652 131.004C121.535 131.075 121.41 131.11 121.277 131.11ZM121.277 126.399C121.145 126.399 121.02 126.364 120.902 126.293C120.785 126.223 120.693 126.129 120.627 126.012C120.561 125.895 120.527 125.77 120.527 125.637C120.527 125.504 120.561 125.379 120.627 125.262C120.693 125.145 120.785 125.053 120.902 124.987C121.02 124.92 121.145 124.887 121.277 124.887C121.41 124.887 121.535 124.92 121.652 124.987C121.77 125.053 121.861 125.145 121.928 125.262C121.994 125.379 122.027 125.504 122.027 125.637C122.027 125.77 121.994 125.895 121.928 126.012C121.861 126.129 121.77 126.223 121.652 126.293C121.535 126.364 121.41 126.399 121.277 126.399ZM135.762 129.704H126.223V128.954H135.762V129.704ZM131.414 133.184H130.512V129.282H131.414V133.184ZM128.355 124.641H133.605V123.2H134.531V127.688H127.441V123.2H128.355V124.641ZM133.605 126.938V125.391H128.355V126.938H133.605ZM139.969 124.7C139.969 125.364 139.85 125.983 139.611 126.557C139.373 127.131 139.035 127.629 138.598 128.051C138.16 128.473 137.652 128.797 137.074 129.024L136.57 128.286C137.094 128.098 137.555 127.825 137.953 127.465C138.352 127.106 138.66 126.688 138.879 126.211C139.098 125.735 139.207 125.231 139.207 124.7V123.411H139.969V124.7ZM140.109 124.735C140.109 125.204 140.219 125.657 140.438 126.094C140.656 126.532 140.965 126.918 141.363 127.254C141.762 127.59 142.215 127.848 142.723 128.028L142.254 128.766C141.684 128.555 141.182 128.25 140.748 127.852C140.314 127.454 139.977 126.985 139.734 126.446C139.492 125.907 139.371 125.336 139.371 124.735V123.411H140.109V124.735ZM144.75 130.465H143.836V122.766H144.75V130.465ZM146.32 126.75H144.457V125.965H146.32V126.75ZM145.23 132.961H138.246V132.188H145.23V132.961ZM139.184 132.563H138.246V129.727H139.184V132.563ZM152.215 124.196H147.562V123.422H152.215V124.196ZM150.07 128.168H149.156V125.684H150.07V128.168ZM152.754 123.985C152.746 124.516 152.727 124.985 152.695 125.391C152.664 125.797 152.59 126.27 152.473 126.809L151.559 126.727C151.676 126.18 151.75 125.704 151.781 125.297C151.812 124.891 151.828 124.454 151.828 123.985V123.422H152.754V123.985ZM155.145 129.282H154.207V122.766H155.145V129.282ZM156.668 126.399H154.699V125.625H156.668V126.399ZM146.918 127.782C148.145 127.782 149.311 127.76 150.416 127.717C151.521 127.674 152.551 127.59 153.504 127.465L153.562 128.145C152.586 128.301 151.541 128.409 150.428 128.467C149.314 128.526 148.176 128.555 147.012 128.555L146.918 127.782ZM151.758 129.411C152.477 129.411 153.096 129.483 153.615 129.627C154.135 129.772 154.533 129.985 154.811 130.266C155.088 130.547 155.227 130.879 155.227 131.262C155.227 131.661 155.088 132 154.811 132.282C154.533 132.563 154.135 132.778 153.615 132.926C153.096 133.075 152.477 133.149 151.758 133.149C151.039 133.149 150.42 133.075 149.9 132.926C149.381 132.778 148.982 132.563 148.705 132.282C148.428 132 148.289 131.661 148.289 131.262C148.289 130.879 148.428 130.547 148.705 130.266C148.982 129.985 149.383 129.772 149.906 129.627C150.43 129.483 151.047 129.411 151.758 129.411ZM151.758 130.125C151.242 130.125 150.791 130.17 150.404 130.26C150.018 130.35 149.723 130.481 149.52 130.653C149.316 130.825 149.215 131.028 149.215 131.262C149.215 131.504 149.316 131.711 149.52 131.883C149.723 132.055 150.016 132.188 150.398 132.282C150.781 132.375 151.234 132.422 151.758 132.422C152.281 132.422 152.734 132.375 153.117 132.282C153.5 132.188 153.793 132.055 153.996 131.883C154.199 131.711 154.301 131.504 154.301 131.262C154.301 131.028 154.199 130.825 153.996 130.653C153.793 130.481 153.5 130.35 153.117 130.26C152.734 130.17 152.281 130.125 151.758 130.125ZM165.34 125.063H162.152V124.301H165.34V125.063ZM165.34 127.407H162.152V126.645H165.34V127.407ZM165.984 133.184H165.059V130.219H158.977V129.481H165.984V133.184ZM165.984 128.907H165.059V122.766H165.984V128.907ZM160.219 123.364C160.727 123.364 161.186 123.469 161.596 123.68C162.006 123.891 162.328 124.186 162.562 124.565C162.797 124.944 162.914 125.372 162.914 125.848C162.914 126.333 162.797 126.764 162.562 127.143C162.328 127.522 162.006 127.817 161.596 128.028C161.186 128.239 160.727 128.344 160.219 128.344C159.703 128.344 159.24 128.239 158.83 128.028C158.42 127.817 158.098 127.522 157.863 127.143C157.629 126.764 157.512 126.333 157.512 125.848C157.512 125.372 157.629 124.944 157.863 124.565C158.098 124.186 158.42 123.891 158.83 123.68C159.24 123.469 159.703 123.364 160.219 123.364ZM160.219 124.149C159.867 124.149 159.553 124.221 159.275 124.366C158.998 124.51 158.781 124.711 158.625 124.969C158.469 125.227 158.391 125.52 158.391 125.848C158.391 126.184 158.469 126.483 158.625 126.745C158.781 127.006 158.998 127.209 159.275 127.354C159.553 127.499 159.867 127.571 160.219 127.571C160.555 127.571 160.861 127.497 161.139 127.348C161.416 127.2 161.633 126.995 161.789 126.733C161.945 126.471 162.023 126.176 162.023 125.848C162.023 125.52 161.945 125.227 161.789 124.969C161.633 124.711 161.416 124.51 161.139 124.366C160.861 124.221 160.555 124.149 160.219 124.149ZM171.27 125.567C171.27 126.34 171.137 127.092 170.871 127.823C170.605 128.553 170.244 129.196 169.787 129.75C169.33 130.305 168.816 130.727 168.246 131.016L167.66 130.243C168.176 130 168.65 129.637 169.084 129.153C169.518 128.668 169.863 128.11 170.121 127.477C170.379 126.844 170.508 126.208 170.508 125.567V123.668H171.27V125.567ZM171.422 125.567C171.422 126.184 171.549 126.795 171.803 127.401C172.057 128.006 172.4 128.545 172.834 129.018C173.268 129.491 173.738 129.844 174.246 130.079L173.684 130.805C173.129 130.532 172.619 130.127 172.154 129.592C171.689 129.057 171.322 128.438 171.053 127.735C170.783 127.032 170.648 126.309 170.648 125.567V123.668H171.422V125.567ZM176.309 133.208H175.383V122.766H176.309V133.208ZM189.246 129.024H188.332V122.766H189.246V129.024ZM190.816 126.247H188.988V125.485H190.816V126.247ZM186.41 123.54C186.41 124.407 186.213 125.202 185.818 125.924C185.424 126.647 184.859 127.272 184.125 127.799C183.391 128.327 182.516 128.739 181.5 129.036L181.113 128.286C182.004 128.028 182.773 127.684 183.422 127.254C184.07 126.825 184.568 126.331 184.916 125.772C185.264 125.213 185.438 124.61 185.438 123.961V123.54H186.41ZM185.953 124.301H181.57V123.54H185.953V124.301ZM185.953 129.141C186.648 129.141 187.254 129.221 187.77 129.381C188.285 129.542 188.68 129.772 188.953 130.073C189.227 130.374 189.363 130.731 189.363 131.145C189.363 131.559 189.227 131.918 188.953 132.223C188.68 132.528 188.285 132.76 187.77 132.92C187.254 133.081 186.648 133.161 185.953 133.161C185.266 133.161 184.664 133.081 184.148 132.92C183.633 132.76 183.236 132.528 182.959 132.223C182.682 131.918 182.543 131.559 182.543 131.145C182.543 130.731 182.682 130.374 182.959 130.073C183.236 129.772 183.633 129.542 184.148 129.381C184.664 129.221 185.266 129.141 185.953 129.141ZM185.953 129.879C185.453 129.872 185.014 129.918 184.635 130.02C184.256 130.122 183.965 130.27 183.762 130.465C183.559 130.661 183.457 130.887 183.457 131.145C183.457 131.403 183.559 131.627 183.762 131.819C183.965 132.01 184.256 132.159 184.635 132.264C185.014 132.37 185.453 132.422 185.953 132.422C186.461 132.422 186.904 132.37 187.283 132.264C187.662 132.159 187.955 132.01 188.162 131.819C188.369 131.627 188.473 131.403 188.473 131.145C188.473 130.887 188.369 130.661 188.162 130.465C187.955 130.27 187.662 130.122 187.283 130.02C186.904 129.918 186.461 129.872 185.953 129.879ZM199.652 127.079H196.723V126.329H199.652V127.079ZM194.965 125.567C194.965 126.317 194.838 127.053 194.584 127.776C194.33 128.499 193.982 129.139 193.541 129.698C193.1 130.256 192.605 130.684 192.059 130.981L191.461 130.243C191.969 129.993 192.432 129.622 192.85 129.129C193.268 128.637 193.598 128.077 193.84 127.448C194.082 126.819 194.203 126.192 194.203 125.567V123.668H194.965V125.567ZM195.141 125.567C195.141 126.184 195.262 126.793 195.504 127.395C195.746 127.997 196.074 128.53 196.488 128.995C196.902 129.459 197.359 129.809 197.859 130.043L197.309 130.793C196.754 130.504 196.256 130.092 195.814 129.557C195.373 129.022 195.025 128.407 194.771 127.711C194.518 127.016 194.391 126.301 194.391 125.567V123.668H195.141V125.567ZM200.109 133.208H199.195V122.766H200.109V133.208ZM209.613 124.208H203.039V123.446H209.613V124.208ZM211.336 128.684H201.844V127.922H211.336V128.684ZM207.035 133.208H206.109V128.426H207.035V133.208ZM210.082 124.36C210.082 124.852 210.076 125.278 210.064 125.637C210.053 125.997 210.018 126.411 209.959 126.879C209.9 127.348 209.809 127.856 209.684 128.403L208.77 128.286C208.895 127.762 208.986 127.272 209.045 126.815C209.104 126.358 209.139 125.954 209.15 125.602C209.162 125.25 209.168 124.836 209.168 124.36V123.446H210.082V124.36ZM223.289 133.184H222.375V122.766H223.289V133.184ZM224.977 127.782H223.055V127.008H224.977V127.782ZM220.594 123.891C220.594 124.907 220.428 125.864 220.096 126.762C219.764 127.661 219.242 128.489 218.531 129.247C217.82 130.004 216.914 130.657 215.812 131.204L215.297 130.477C216.266 129.993 217.076 129.426 217.729 128.778C218.381 128.129 218.871 127.409 219.199 126.616C219.527 125.823 219.691 124.965 219.691 124.043V123.891H220.594ZM220.16 124.665H215.777V123.891H220.16V124.665ZM226.875 127.782C227.898 127.782 228.777 127.758 229.512 127.711C230.246 127.665 231.004 127.575 231.785 127.442L231.879 128.204C231.09 128.336 230.32 128.426 229.57 128.473C228.82 128.52 227.922 128.543 226.875 128.543H226.066V127.782H226.875ZM230.766 126.27H226.969V128.168H226.066V125.543H229.863V124.149H226.043V123.399H230.766V126.27ZM233.742 129.106H232.828V122.778H233.742V129.106ZM235.324 126.223H233.449V125.45H235.324V126.223ZM233.742 133.184H232.828V130.407H226.922V129.657H233.742V133.184ZM244.875 133.184H243.996V122.766H244.875V133.184ZM244.23 127.723H242.191V126.961H244.23V127.723ZM242.461 132.645H241.617V123H242.461V132.645ZM237.023 129.821C237.875 129.821 238.582 129.801 239.145 129.762C239.707 129.723 240.277 129.645 240.855 129.528L240.938 130.301C240.344 130.418 239.76 130.499 239.186 130.542C238.611 130.584 237.891 130.606 237.023 130.606H236.355V129.821H237.023ZM240.258 124.805H237.27V130.184H236.355V124.043H240.258V124.805ZM255.879 131.895H246.34V131.122H255.879V131.895ZM251.531 131.461H250.629V128.883H251.531V131.461ZM254.672 126.692H248.449V128.801H247.535V125.942H253.77V124.301H247.512V123.54H254.672V126.692ZM254.918 129.153H247.535V128.391H254.918V129.153ZM263.098 132.235H262.031V124.852H261.984L259.922 126.223V125.157L262.031 123.75H263.098V132.235ZM268.289 132.352C267.734 132.352 267.236 132.258 266.795 132.071C266.354 131.883 266.006 131.62 265.752 131.28C265.498 130.94 265.359 130.547 265.336 130.102H266.402C266.426 130.36 266.521 130.588 266.689 130.788C266.857 130.987 267.08 131.141 267.357 131.25C267.635 131.36 267.941 131.415 268.277 131.415C268.645 131.415 268.977 131.35 269.273 131.221C269.57 131.092 269.801 130.917 269.965 130.694C270.129 130.471 270.211 130.215 270.211 129.926C270.211 129.614 270.131 129.338 269.971 129.1C269.811 128.862 269.576 128.676 269.268 128.543C268.959 128.411 268.586 128.344 268.148 128.344H267.457V127.418H268.148C268.492 127.418 268.797 127.358 269.062 127.237C269.328 127.116 269.533 126.946 269.678 126.727C269.822 126.508 269.895 126.254 269.895 125.965C269.895 125.684 269.83 125.436 269.701 125.221C269.572 125.006 269.389 124.84 269.15 124.723C268.912 124.606 268.633 124.547 268.312 124.547C268.008 124.547 267.723 124.602 267.457 124.711C267.191 124.821 266.975 124.975 266.807 125.174C266.639 125.374 266.547 125.61 266.531 125.883H265.512C265.535 125.446 265.674 125.055 265.928 124.711C266.182 124.368 266.52 124.102 266.941 123.915C267.363 123.727 267.824 123.633 268.324 123.633C268.848 123.633 269.307 123.735 269.701 123.938C270.096 124.141 270.398 124.417 270.609 124.764C270.82 125.112 270.922 125.493 270.914 125.907C270.922 126.219 270.867 126.506 270.75 126.768C270.633 127.03 270.465 127.25 270.246 127.43C270.027 127.61 269.77 127.743 269.473 127.829V127.887C269.84 127.942 270.156 128.063 270.422 128.25C270.688 128.438 270.893 128.674 271.037 128.959C271.182 129.245 271.25 129.567 271.242 129.926C271.25 130.379 271.125 130.792 270.867 131.163C270.609 131.534 270.254 131.825 269.801 132.036C269.348 132.247 268.844 132.352 268.289 132.352ZM275.59 123.633C276.137 123.633 276.641 123.758 277.102 124.008C277.562 124.258 277.939 124.682 278.232 125.28C278.525 125.877 278.672 126.668 278.672 127.653C278.672 128.645 278.543 129.493 278.285 130.196C278.027 130.899 277.656 131.434 277.172 131.801C276.688 132.168 276.113 132.352 275.449 132.352C274.965 132.352 274.527 132.256 274.137 132.065C273.746 131.874 273.426 131.608 273.176 131.268C272.926 130.928 272.766 130.536 272.695 130.09H273.738C273.801 130.348 273.908 130.577 274.061 130.776C274.213 130.975 274.406 131.131 274.641 131.245C274.875 131.358 275.145 131.415 275.449 131.415C275.91 131.415 276.309 131.286 276.645 131.028C276.98 130.77 277.238 130.397 277.418 129.909C277.598 129.42 277.688 128.836 277.688 128.157H277.57C277.406 128.391 277.213 128.592 276.99 128.76C276.768 128.928 276.521 129.057 276.252 129.147C275.982 129.237 275.699 129.282 275.402 129.282C274.902 129.282 274.439 129.161 274.014 128.918C273.588 128.676 273.25 128.342 273 127.917C272.75 127.491 272.625 127.012 272.625 126.481C272.625 125.95 272.748 125.467 272.994 125.034C273.24 124.6 273.588 124.256 274.037 124.002C274.486 123.749 275.004 123.625 275.59 123.633ZM275.59 124.559C275.23 124.559 274.902 124.645 274.605 124.817C274.309 124.989 274.076 125.221 273.908 125.514C273.74 125.807 273.656 126.125 273.656 126.469C273.656 126.813 273.738 127.129 273.902 127.418C274.066 127.708 274.293 127.936 274.582 128.104C274.871 128.272 275.195 128.356 275.555 128.356C275.914 128.356 276.244 128.266 276.545 128.086C276.846 127.907 277.084 127.67 277.26 127.377C277.436 127.084 277.523 126.774 277.523 126.446C277.523 126.118 277.439 125.809 277.271 125.52C277.104 125.231 276.873 124.999 276.58 124.823C276.287 124.647 275.957 124.559 275.59 124.559ZM283.055 132.352C282.5 132.352 282.002 132.258 281.561 132.071C281.119 131.883 280.771 131.62 280.518 131.28C280.264 130.94 280.125 130.547 280.102 130.102H281.168C281.191 130.36 281.287 130.588 281.455 130.788C281.623 130.987 281.846 131.141 282.123 131.25C282.4 131.36 282.707 131.415 283.043 131.415C283.41 131.415 283.742 131.35 284.039 131.221C284.336 131.092 284.566 130.917 284.73 130.694C284.895 130.471 284.977 130.215 284.977 129.926C284.977 129.614 284.896 129.338 284.736 129.1C284.576 128.862 284.342 128.676 284.033 128.543C283.725 128.411 283.352 128.344 282.914 128.344H282.223V127.418H282.914C283.258 127.418 283.562 127.358 283.828 127.237C284.094 127.116 284.299 126.946 284.443 126.727C284.588 126.508 284.66 126.254 284.66 125.965C284.66 125.684 284.596 125.436 284.467 125.221C284.338 125.006 284.154 124.84 283.916 124.723C283.678 124.606 283.398 124.547 283.078 124.547C282.773 124.547 282.488 124.602 282.223 124.711C281.957 124.821 281.74 124.975 281.572 125.174C281.404 125.374 281.312 125.61 281.297 125.883H280.277C280.301 125.446 280.439 125.055 280.693 124.711C280.947 124.368 281.285 124.102 281.707 123.915C282.129 123.727 282.59 123.633 283.09 123.633C283.613 123.633 284.072 123.735 284.467 123.938C284.861 124.141 285.164 124.417 285.375 124.764C285.586 125.112 285.688 125.493 285.68 125.907C285.688 126.219 285.633 126.506 285.516 126.768C285.398 127.03 285.23 127.25 285.012 127.43C284.793 127.61 284.535 127.743 284.238 127.829V127.887C284.605 127.942 284.922 128.063 285.188 128.25C285.453 128.438 285.658 128.674 285.803 128.959C285.947 129.245 286.016 129.567 286.008 129.926C286.016 130.379 285.891 130.792 285.633 131.163C285.375 131.534 285.02 131.825 284.566 132.036C284.113 132.247 283.609 132.352 283.055 132.352Z" fill="#BABBC2"/>
</svg>
