<svg width="104" height="29" viewBox="0 0 104 29" fill="none" xmlns="http://www.w3.org/2000/svg">
<path d="M15.3757 0.511257C7.64935 0.20415 1.13867 6.21834 0.831567 13.9446C0.52446 21.671 6.53993 28.1816 14.265 28.4887C21.9913 28.7959 28.5019 22.7817 28.809 15.0554C29.1149 7.32904 23.1007 0.817085 15.3757 0.511257ZM21.2849 21.0209C21.1109 21.328 20.7718 21.4816 20.4417 21.4355C20.3406 21.4214 20.2395 21.3882 20.1448 21.3344C18.2945 20.2813 16.2778 19.5954 14.1511 19.296C12.0244 18.9966 9.89635 19.1002 7.82722 19.6031C7.37807 19.7119 6.92637 19.4368 6.8176 18.9876C6.70884 18.5385 6.98395 18.0868 7.4331 17.978C9.70825 17.4252 12.0474 17.3113 14.384 17.6402C16.7205 17.969 18.9368 18.7227 20.9727 19.8808C21.3732 20.1098 21.514 20.6191 21.2862 21.0209H21.2849ZM23.125 17.3459C22.8397 17.8731 22.1794 18.0701 21.6522 17.7848C19.4871 16.6139 17.1428 15.8449 14.6847 15.4994C12.2265 15.1539 9.76199 15.2473 7.3576 15.7758C7.22708 15.8039 7.09784 15.809 6.97244 15.7911C6.53609 15.7297 6.16244 15.4047 6.06263 14.9479C5.93339 14.3618 6.30448 13.7821 6.89054 13.6529C9.5483 13.0681 12.2726 12.9645 14.9879 13.3458C17.702 13.7271 20.2932 14.5768 22.6861 15.8717C23.2146 16.1571 23.4104 16.8161 23.125 17.3446V17.3459ZM25.1647 13.2025C24.896 13.7194 24.3368 13.9869 23.7917 13.9101C23.6445 13.8896 23.4999 13.8436 23.3605 13.7719C20.8396 12.4603 18.1243 11.594 15.2899 11.196C12.4556 10.7981 9.60588 10.8825 6.82144 11.4481C6.09718 11.5953 5.39211 11.1269 5.24496 10.404C5.0978 9.67969 5.56614 8.97463 6.28912 8.82747C9.37299 8.20174 12.526 8.10833 15.6623 8.54851C18.7986 8.9887 21.8032 9.94841 24.5953 11.4008C25.2504 11.7412 25.5051 12.5486 25.1647 13.2038V13.2025Z" fill="#2D2A26"/>
<path d="M40.0743 21.8168C37.6596 21.8168 35.5867 20.9812 34.7204 20.0317C34.6385 19.9383 34.627 19.8871 34.627 19.7733V16.9466C34.627 16.8122 34.7408 16.761 34.833 16.8749C35.8746 18.175 38.0934 19.2371 39.9092 19.2371C41.3539 19.2371 42.3238 18.8455 42.3238 17.5659C42.3238 16.802 41.963 16.3068 39.9924 15.7501L38.8574 15.4302C36.2265 14.6881 34.627 13.8103 34.627 11.2933C34.627 9.06544 36.6897 7.10507 40.1357 7.10507C41.8273 7.10507 43.5088 7.631 44.4787 8.35398C44.5606 8.4154 44.5926 8.4781 44.5926 8.59071V11.1602C44.5926 11.3355 44.448 11.3867 44.3136 11.2741C43.5292 10.624 42.0129 9.74748 40.2176 9.74748C38.4223 9.74748 37.5765 10.5524 37.5765 11.2945C37.5765 12.0789 38.1229 12.2952 40.073 12.8736L41.0429 13.1628C44.0449 14.0598 45.2733 15.3189 45.2733 17.4034C45.2733 20.0855 43.0455 21.8194 40.0743 21.8194V21.8168ZM61.1098 16.4309C61.1098 14.7904 62.2449 13.5735 63.8444 13.5735C65.4439 13.5735 66.5674 14.7904 66.5674 16.4309C66.5674 18.0714 65.4324 19.2883 63.8444 19.2883C62.2564 19.2883 61.1098 18.0714 61.1098 16.4309ZM63.8329 21.8168C67.165 21.8168 69.4862 19.4342 69.4862 16.4309C69.4862 13.4276 67.165 11.045 63.8329 11.045C60.5008 11.045 58.1898 13.4072 58.1898 16.4309C58.1898 19.4546 60.4905 21.8168 63.8329 21.8168ZM83.951 10.427V11.2933H82.1966C82.1032 11.2933 82.052 11.3444 82.052 11.4378V13.5006C82.052 13.594 82.1032 13.6452 82.1966 13.6452H83.951V21.424C83.951 21.5174 84.0021 21.5686 84.0956 21.5686H86.7367C86.8301 21.5686 86.8813 21.5174 86.8813 21.424V13.6452H89.1411L92.422 20.7739L90.6574 24.6524C90.6062 24.7663 90.6677 24.8175 90.7713 24.8175H93.5877C93.6811 24.8175 93.7221 24.797 93.763 24.7036L99.5917 11.457C99.6326 11.3636 99.5815 11.292 99.4778 11.292H96.8367C96.7433 11.292 96.7023 11.3124 96.6614 11.4059L93.9998 17.8026L91.3279 11.4059C91.287 11.3124 91.246 11.292 91.1526 11.292H86.8813V10.6112C86.8813 9.49667 87.635 8.98099 88.6036 8.98099C89.1807 8.98099 89.8103 9.28042 90.2543 9.54786C90.358 9.60928 90.4296 9.53762 90.3887 9.44421L89.4597 7.22664C89.429 7.15498 89.388 7.11275 89.3151 7.0718C88.8608 6.83508 88.1187 6.62778 87.3957 6.62778C85.2088 6.62778 83.9497 8.29895 83.9497 10.4244L83.951 10.427ZM52.8563 21.7541C55.4975 21.7541 57.3951 19.4738 57.3951 16.4104C57.3951 13.347 55.4757 11.1077 52.8346 11.1077C50.8742 11.1077 49.7392 12.3041 49.0789 13.5006V11.4378C49.0789 11.3444 49.0277 11.2933 48.9343 11.2933H46.3444C46.251 11.2933 46.1998 11.3444 46.1998 11.4378V24.6742C46.1998 24.7676 46.251 24.8188 46.3444 24.8188H48.9343C49.0277 24.8188 49.0789 24.7676 49.0789 24.6742V19.3817C49.7392 20.5781 50.8537 21.7541 52.8551 21.7541H52.8563ZM74.8926 21.7132C75.7589 21.7132 76.5945 21.4867 77.0897 21.1975C77.1613 21.1565 77.1716 21.1156 77.1716 21.0426V19.0823C77.1716 18.9786 77.1204 18.9479 77.027 19.0004C76.7275 19.1654 76.336 19.2998 75.7998 19.2998C74.954 19.2998 74.4178 18.8046 74.4178 17.7105V13.6452H76.9975C77.091 13.6452 77.1421 13.594 77.1421 13.5006V11.4378C77.1421 11.3444 77.091 11.2933 76.9975 11.2933H74.4178V8.60094C74.4178 8.48706 74.3462 8.42564 74.2425 8.50753L69.6308 12.1391C69.5694 12.1903 69.5489 12.2427 69.5489 12.3246V13.5006C69.5489 13.594 69.6001 13.6452 69.6935 13.6452H71.4888V18.143C71.4888 20.5781 72.8913 21.7132 74.8939 21.7132H74.8926ZM77.8741 8.24009C77.8741 9.16909 78.5958 9.87032 79.5862 9.87032C80.5766 9.87032 81.3188 9.16909 81.3188 8.24009C81.3188 7.31109 80.5971 6.60986 79.5862 6.60986C78.5753 6.60986 77.8741 7.31109 77.8741 8.24009ZM78.2759 21.5698H80.917C81.0104 21.5698 81.0616 21.5186 81.0616 21.4252V11.4391C81.0616 11.3457 81.0104 11.2945 80.917 11.2945H78.2759C78.1825 11.2945 78.1313 11.3457 78.1313 11.4391V21.4252C78.1313 21.5186 78.1825 21.5698 78.2759 21.5698ZM49.0175 16.3912C49.4922 14.802 50.585 13.585 52.0707 13.585C53.5563 13.585 54.4635 14.6574 54.4635 16.4117C54.4635 18.1661 53.4834 19.2589 52.0707 19.2589C50.658 19.2589 49.491 17.8973 49.0175 16.3912Z" fill="#2D2A26"/>
<path d="M102.976 11.8999C102.84 11.6658 102.652 11.4828 102.412 11.3497C102.171 11.2179 101.902 11.1514 101.603 11.1514C101.303 11.1514 101.035 11.2179 100.794 11.3497C100.554 11.4828 100.365 11.6658 100.23 11.8999C100.094 12.1341 100.026 12.399 100.026 12.6946C100.026 12.9902 100.094 13.2499 100.23 13.4841C100.365 13.7183 100.554 13.9013 100.794 14.0343C101.035 14.1674 101.303 14.2327 101.603 14.2327C101.902 14.2327 102.171 14.1661 102.412 14.0343C102.652 13.9025 102.84 13.7183 102.976 13.4841C103.112 13.2499 103.179 12.9876 103.179 12.6946C103.179 12.4016 103.112 12.1341 102.976 11.8999ZM102.729 13.3536C102.619 13.5481 102.465 13.6991 102.27 13.8091C102.074 13.9179 101.851 13.9729 101.604 13.9729C101.357 13.9729 101.128 13.9179 100.932 13.8091C100.737 13.7004 100.584 13.5481 100.476 13.3536C100.367 13.1604 100.313 12.9403 100.313 12.6946C100.313 12.4489 100.367 12.2301 100.476 12.0381C100.584 11.8462 100.737 11.6952 100.932 11.5864C101.128 11.4777 101.352 11.4226 101.604 11.4226C101.856 11.4226 102.074 11.4777 102.27 11.5864C102.465 11.6952 102.619 11.8475 102.729 12.042C102.839 12.2365 102.894 12.4553 102.894 12.701C102.894 12.9467 102.839 13.1604 102.729 13.3549V13.3536Z" fill="#2D2A26"/>
<path d="M102.139 12.665C102.244 12.5883 102.296 12.4859 102.296 12.3592C102.296 12.2325 102.245 12.125 102.143 12.0483C102.041 11.9715 101.892 11.9331 101.698 11.9331H101.012V13.3663H101.343V12.7968H101.524L101.96 13.3663H102.367L101.89 12.7623C101.991 12.7431 102.076 12.7111 102.14 12.6638L102.139 12.665ZM101.645 12.5384H101.343V12.1877H101.657C101.75 12.1877 101.822 12.2018 101.872 12.2313C101.922 12.2607 101.947 12.3055 101.947 12.3669C101.947 12.4245 101.92 12.468 101.869 12.4961C101.817 12.5256 101.742 12.5396 101.645 12.5396V12.5384Z" fill="#2D2A26"/>
</svg>
